<svg width="39" height="37.86" fill="none" version="1.1" viewBox="0 0 39 37.86" xmlns="http://www.w3.org/2000/svg">
 <mask id="a" x="0" y="0" width="160" height="46" mask-type="alpha" maskUnits="userSpaceOnUse">
  <path d="m50.621 21.655v6.148c0 7.1362 4.543 10.896 11.178 10.896 7.1309 0 10.628-3.7877 10.628-9.7436v-0.9332h-5.0936v0.9332c0 3.0191-1.4867 5.1325-5.534 5.1325-3.9923 0-6.1123-2.4427-6.1123-6.148v-6.45c0-3.376 2.2852-6.1481 6.1123-6.1481 3.6893 0 5.534 2.086 5.534 5.16v0.9057h5.0936v-0.9057c0-6.0108-3.8271-9.771-10.628-9.771-6.8282 0-11.178 4.2268-11.178 10.924zm30.204-10.375h-4.8458v26.898h4.8458zm3.6343 2.3055c0 1.9487 1.4868 3.2936 3.4141 3.2936s3.4416-1.3449 3.4416-3.2936c0-1.9761-1.5143-3.321-3.4416-3.321s-3.4141 1.3449-3.4141 3.321zm5.8645 5.5168h-4.8733v19.076h4.8733zm3.4691 9.3868c0 5.9011 4.1024 10.21 9.8288 10.21 5.122 0 7.352-2.6898 8.673-4.6934l-4.185-2.3604c-0.633 1.3449-1.872 2.827-4.57 2.827-2.781 0-4.5981-1.9487-4.7083-4.4189h14.152v-1.8664c0-5.7364-3.91-9.6064-9.444-9.6064-5.6444 0-9.7468 4.1445-9.7468 9.9083zm5.0661-1.8115c0.3304-2.2781 1.8997-3.87 4.6257-3.87 2.505 0 4.212 1.5371 4.488 3.87zm17.594-7.5753v19.076h4.845v-9.8534c0-3.3759 1.652-5.2972 4.791-5.2972 2.781 0 4.323 1.5645 4.323 4.2268v10.924h4.846v-11.39c0-4.9404-3.194-7.987-7.434-7.987-3.524 0-5.287 1.6194-6.057 3.376h-0.551v-3.0741zm22.494 5.3796c0 3.5406 2.45 5.1874 7.792 5.9285l0.578 0.0823c2.092 0.247 4.047 0.4117 4.047 1.8389 0 1.4822-1.817 2.3056-3.689 2.3056-2.478 0-5.011-1.2351-6.223-3.7328l-3.882 2.4153c1.762 2.6898 4.708 5.3796 9.995 5.3796 5.066 0 8.59-2.7172 8.59-6.45 0-3.4857-2.285-5.0227-8.398-5.8461l-0.578-0.0824c-2.01-0.247-3.441-0.494-3.441-1.8664 0-1.1527 0.991-1.8938 2.725-1.8938 2.561 0 4.488 1.4547 5.948 3.1838l3.496-2.7446c-2.56-2.6898-5.341-4.419-9.278-4.419-4.433 0-7.682 2.3605-7.682 5.9011z" fill="#000"/>
  <path d="m3.8713 22.804c0-2.7882 2.2673-5.0489 5.0646-5.0489 2.1926 0 4.0594 1.3891 4.7642 3.3321v4e-4c1.5359 2.1431 3.7804 3.678 6.339 4.335l0.0616 0.0156c-0.9634 0.7219-1.6004 1.7951-1.7716 2.9843-0.1711 1.1893 0.1375 2.3977 0.8584 3.3605l-0.0261-0.0147c-2.0663-0.7154-3.8785-2.0157-5.2149-3.7418l8e-3 13.748h-10.144l0.06245-18.933zm27.894-13.84c0 2.7882 2.2673 5.0488 5.0646 5.0488 2.7974 0 5.0647-2.2603 5.0647-5.0488 0-2.7886-2.2677-5.0488-5.0647-5.0488-2.7969 0-5.0646 2.2602-5.0646 5.0488zm-22.83-5.0488c2.7969 0 5.0646 2.2602 5.0646 5.0488 0 2.7886-2.2673 5.0488-5.0646 5.0488-2.7973 0-5.0646-2.2607-5.0646-5.0488 0-2.7882 2.2673-5.0488 5.0646-5.0488zm15.714 21.686c-0.4427 0.0633-0.8676 0.2166-1.2483 0.4505-0.3808 0.2338-0.7093 0.5431-0.9651 0.9087-0.2559 0.3657-0.4337 0.7798-0.5224 1.2167-0.0886 0.437-0.0863 0.8875 0.0069 1.3235s0.2753 0.8483 0.5349 1.2112c0.2597 0.363 0.5913 0.6689 0.9745 0.8988s0.8096 0.3788 1.2529 0.4376 0.894 0.0262 1.3241-0.0958l0.1507-0.061c2.2249-0.6777 4.184-2.0268 5.6073-3.8613v13.738h10.144l-0.0152-18.964c0-2.7882-2.2673-5.0489-5.0646-5.0489-2.1378 0-3.9658 1.3201-4.7093 3.187l-0.027 0.0336c-1.6787 2.3957-4.2743 4.1062-7.2793 4.6244z" fill="url(#paint0_linear)"/>
 </mask>
 <g transform="translate(-3.8106 -3.9147)" mask="url(#a)">
  <rect x="-6" y="-8" width="54" height="62" fill="#c083f0"/>
  <rect x="47" y="-8" width="115" height="62" fill="#652a94"/>
 </g>
 <defs>
  <linearGradient id="paint0_linear" x1="3.8106" x2="41.909" y1="3.9147" y2="3.9147" gradientUnits="userSpaceOnUse">
   <stop stop-color="#0015D6" offset="0"/>
   <stop stop-color="#0989FB" offset="1"/>
  </linearGradient>
 </defs>
</svg>
