<?xml version="1.0" encoding="UTF-8" standalone="no"?>
<!-- Created with Inkscape (http://www.inkscape.org/) -->

<svg
   width="135.46666mm"
   height="135.46666mm"
   viewBox="0 0 135.46666 135.46666"
   version="1.1"
   id="svg5"
   inkscape:version="1.1 (c68e22c387, 2021-05-23)"
   sodipodi:docname="bairro_icon.svg"
   xmlns:inkscape="http://www.inkscape.org/namespaces/inkscape"
   xmlns:sodipodi="http://sodipodi.sourceforge.net/DTD/sodipodi-0.dtd"
   xmlns="http://www.w3.org/2000/svg"
   xmlns:svg="http://www.w3.org/2000/svg">
  <sodipodi:namedview
     id="namedview7"
     pagecolor="#505050"
     bordercolor="#eeeeee"
     borderopacity="1"
     inkscape:pageshadow="0"
     inkscape:pageopacity="0"
     inkscape:pagecheckerboard="0"
     inkscape:document-units="mm"
     showgrid="false"
     fit-margin-top="0"
     fit-margin-left="0"
     fit-margin-right="0"
     fit-margin-bottom="0"
     inkscape:zoom="0.73406285"
     inkscape:cx="308.55669"
     inkscape:cy="270.41281"
     inkscape:window-width="1920"
     inkscape:window-height="1013"
     inkscape:window-x="1791"
     inkscape:window-y="-9"
     inkscape:window-maximized="1"
     inkscape:current-layer="layer1" />
  <defs
     id="defs2" />
  <g
     inkscape:label="Camada 1"
     inkscape:groupmode="layer"
     id="layer1"
     transform="translate(-165.37916,16.73336)">
    <path
       style="fill:#7e3bb2;fill-opacity:1;stroke-width:0.264583"
       d="m 166.15256,117.9599 -0.7734,-0.77339 V 50.99997 -15.186565 l 0.7734,-0.773398 0.77339,-0.773397 h 66.18654 66.18654 l 0.77339,0.773397 0.7734,0.773398 v 66.186535 66.18654 l -0.7734,0.77339 -0.77339,0.7734 h -66.18654 -66.18654 z m 66.95993,-7.31378 c 0,-5.15667 0.17686,-5.38577 4.16719,-5.39815 l 2.71198,-0.008 v -7.937501 -7.9375 h -16.02043 c -13.84275,0 -16.12654,-0.0549 -16.80104,-0.40367 -0.42934,-0.22201 -0.80665,-0.43037 -0.83848,-0.46302 -0.0318,-0.0326 -0.12112,-4.40513 -0.19844,-9.71664 l -0.14057,-9.657292 -7.17801,-0.07034 -7.17801,-0.07034 -0.69334,-0.693343 -0.69335,-0.693344 v -9.753501 c 0,-5.364427 -0.0629,-9.753505 -0.13983,-9.753505 -0.0769,0 -0.8289,0.347838 -1.67108,0.77297 -3.94898,1.99344 -10.89449,3.798004 -15.98232,4.152484 l -2.57968,0.179735 V 83.715479 114.2358 h 31.6177 31.61771 z M 296.3479,90.555179 c 0,-18.768347 -0.0686,-23.67999 -0.33073,-23.679146 -0.1819,5.29e-4 -1.42837,0.179086 -2.76994,0.396668 -9.47565,1.536817 -15.71816,7.579938 -17.00201,16.458998 -0.14286,0.98802 -0.26211,6.89414 -0.26499,13.12472 -0.003,7.123731 -0.1046,11.513991 -0.27294,11.828531 -0.14723,0.27511 -0.71278,0.62381 -1.25677,0.77488 -0.6386,0.17735 -7.34091,0.27521 -18.91459,0.27616 l -17.92552,0.001 v 2.24896 2.24895 h 29.36874 29.36875 z m -24.80197,3.50573 c 0.10516,-10.3714 0.15445,-11.33712 0.68247,-13.37307 2.74026,-10.565832 10.44572,-16.76182 22.5997,-18.172491 l 1.52291,-0.17676 -0.0677,-21.478163 -0.0677,-21.478162 -21.36101,-0.06771 -21.36101,-0.06771 -0.0702,24.189684 -0.0702,24.189686 -0.64143,0.68271 -0.64143,0.682712 h -20.72375 -20.72367 v 7.937504 7.9375 h 15.85777 c 9.86385,0 16.11914,0.0994 16.54926,0.2629 1.36123,0.51753 1.45963,1.26625 1.45963,11.10568 v 9.004331 h 13.47151 13.47151 z m -22.6231,-52.122918 -0.0676,-22.555728 H 228.48231 208.1094 l -0.33015,2.513542 c -1.12423,8.55918 -5.24788,16.378432 -11.5419,21.885681 l -1.44613,1.265359 -0.0216,9.723437 -0.0216,9.723437 h 27.12128 27.12127 z m -72.36879,5.998025 c 13.23351,-2.23638 22.24128,-9.91041 25.71885,-21.910772 1.326,-4.575765 1.47085,-6.859402 1.47085,-23.1885348 V -12.235444 h -16.93333 -16.93333 v 30.461248 30.461245 l 2.18281,-0.180216 c 1.20055,-0.09912 3.22291,-0.355986 4.49415,-0.570817 z m 119.73012,-46.6115638 0.0686,-13.5598962 h -44.04407 -44.04406 l -0.0776,13.4276042 c -0.0427,7.385182 -0.0406,13.5172498 0.005,13.6268188 0.0452,0.109566 19.86914,0.169098 44.05312,0.132291 l 43.97089,-0.06692 z"
       id="path1858" />
  </g>
</svg>
