<svg width="160" height="46" viewBox="0 0 160 46" fill="none" xmlns="http://www.w3.org/2000/svg">
<mask id="mask0" mask-type="alpha" maskUnits="userSpaceOnUse" x="0" y="0" width="160" height="46">
<path d="M50.6208 21.6548V27.8028C50.6208 34.939 55.1638 38.6992 61.7992 38.6992C68.9301 38.6992 72.4268 34.9115 72.4268 28.9556V28.0224H67.3332V28.9556C67.3332 31.9747 65.8465 34.0881 61.7992 34.0881C57.8069 34.0881 55.6869 31.6454 55.6869 27.9401V21.4901C55.6869 18.1141 57.9721 15.342 61.7992 15.342C65.4885 15.342 67.3332 17.428 67.3332 20.502V21.4077H72.4268V20.502C72.4268 14.4912 68.5997 10.731 61.7992 10.731C54.971 10.731 50.6208 14.9578 50.6208 21.6548ZM80.8243 11.2799H75.9785V38.1777H80.8243V11.2799ZM84.4586 13.5854C84.4586 15.5341 85.9454 16.879 87.8727 16.879C89.8 16.879 91.3143 15.5341 91.3143 13.5854C91.3143 11.6093 89.8 10.2644 87.8727 10.2644C85.9454 10.2644 84.4586 11.6093 84.4586 13.5854ZM90.3231 19.1022H85.4498V38.1777H90.3231V19.1022ZM93.7922 28.489C93.7922 34.3901 97.8946 38.6992 103.621 38.6992C108.743 38.6992 110.973 36.0094 112.294 34.0058L108.109 31.6454C107.476 32.9903 106.237 34.4724 103.539 34.4724C100.758 34.4724 98.9409 32.5237 98.8307 30.0535H112.983V28.1871C112.983 22.4507 109.073 18.5807 103.539 18.5807C97.8946 18.5807 93.7922 22.7252 93.7922 28.489ZM98.8583 26.6775C99.1887 24.3994 100.758 22.8075 103.484 22.8075C105.989 22.8075 107.696 24.3446 107.972 26.6775H98.8583ZM116.452 19.1022V38.1777H121.297V28.3243C121.297 24.9484 122.949 23.0271 126.088 23.0271C128.869 23.0271 130.411 24.5916 130.411 27.2539V38.1777H135.257V26.7873C135.257 21.8469 132.063 18.8003 127.823 18.8003C124.299 18.8003 122.536 20.4197 121.766 22.1763H121.215V19.1022H116.452ZM138.946 24.4818C138.946 28.0224 141.396 29.6692 146.738 30.4103L147.316 30.4926C149.408 30.7396 151.363 30.9043 151.363 32.3315C151.363 33.8137 149.546 34.6371 147.674 34.6371C145.196 34.6371 142.663 33.402 141.451 30.9043L137.569 33.3196C139.331 36.0094 142.277 38.6992 147.564 38.6992C152.63 38.6992 156.154 35.982 156.154 32.2492C156.154 28.7635 153.869 27.2265 147.756 26.4031L147.178 26.3207C145.168 26.0737 143.737 25.8267 143.737 24.4543C143.737 23.3016 144.728 22.5605 146.462 22.5605C149.023 22.5605 150.95 24.0152 152.41 25.7443L155.906 22.9997C153.346 20.3099 150.565 18.5807 146.628 18.5807C142.195 18.5807 138.946 20.9412 138.946 24.4818Z" fill="black"/>
<path d="M3.87131 22.8039C3.87131 20.0157 6.13863 17.755 8.93596 17.755C11.1286 17.755 12.9954 19.1441 13.7002 21.0871V21.0875C15.2361 23.2306 17.4806 24.7655 20.0392 25.4225L20.1008 25.4381C19.1374 26.16 18.5004 27.2332 18.3292 28.4224C18.1581 29.6117 18.4667 30.8201 19.1876 31.7829L19.1615 31.7682C17.0952 31.0528 15.283 29.7525 13.9466 28.0264L13.9546 41.7746H3.81055L3.873 22.8413L3.87131 22.8039ZM31.7657 8.96355C31.7657 11.7517 34.033 14.0124 36.8303 14.0124C39.6277 14.0124 41.895 11.7521 41.895 8.96355C41.895 6.17497 39.6273 3.91473 36.8303 3.91473C34.0334 3.91473 31.7657 6.17497 31.7657 8.96355ZM8.93596 3.91473C11.7329 3.91473 14.0006 6.17497 14.0006 8.96355C14.0006 11.7521 11.7333 14.0124 8.93596 14.0124C6.13863 14.0124 3.87131 11.7517 3.87131 8.96355C3.87131 6.17539 6.13863 3.91473 8.93596 3.91473ZM24.6498 25.6009C24.2071 25.6642 23.7822 25.8175 23.4015 26.0514C23.0207 26.2852 22.6922 26.5945 22.4364 26.9601C22.1805 27.3258 22.0027 27.7399 21.914 28.1768C21.8254 28.6138 21.8277 29.0643 21.9209 29.5003C22.0141 29.9363 22.1962 30.3486 22.4558 30.7115C22.7155 31.0745 23.0471 31.3804 23.4303 31.6103C23.8135 31.8402 24.2399 31.9891 24.6832 32.0479C25.1265 32.1067 25.5772 32.0741 26.0073 31.9521L26.158 31.8911C28.3829 31.2134 30.342 29.8643 31.7653 28.0298V41.7674H41.9093L41.8941 22.8039C41.8941 20.0157 39.6268 17.755 36.8295 17.755C34.6917 17.755 32.8637 19.0751 32.1202 20.942L32.0932 20.9756C30.4145 23.3713 27.8189 25.0818 24.8139 25.6L24.6498 25.6009Z" fill="url(#paint0_linear)"/>
</mask>
<g mask="url(#mask0)">
<rect x="-6" y="-8" width="54" height="62" fill="#C083F0"/>
<rect x="47" y="-8" width="115" height="62" fill="#652A94"/>
</g>
<defs>
<linearGradient id="paint0_linear" x1="3.81055" y1="3.91473" x2="41.9093" y2="3.91473" gradientUnits="userSpaceOnUse">
<stop stop-color="#0015D6"/>
<stop offset="1" stop-color="#0989FB"/>
</linearGradient>
</defs>
</svg>
