<?xml version="1.0" encoding="UTF-8" standalone="no"?>
<!-- Created with Inkscape (http://www.inkscape.org/) -->

<svg
   width="126.84478mm"
   height="144.4722mm"
   viewBox="0 0 126.84478 144.4722"
   version="1.1"
   id="svg5"
   inkscape:version="1.1 (c68e22c387, 2021-05-23)"
   sodipodi:docname="delete_icon.svg"
   xmlns:inkscape="http://www.inkscape.org/namespaces/inkscape"
   xmlns:sodipodi="http://sodipodi.sourceforge.net/DTD/sodipodi-0.dtd"
   xmlns="http://www.w3.org/2000/svg"
   xmlns:svg="http://www.w3.org/2000/svg">
  <sodipodi:namedview
     id="namedview7"
     pagecolor="#505050"
     bordercolor="#eeeeee"
     borderopacity="1"
     inkscape:pageshadow="0"
     inkscape:pageopacity="0"
     inkscape:pagecheckerboard="0"
     inkscape:document-units="mm"
     showgrid="false"
     fit-margin-top="0"
     fit-margin-left="0"
     fit-margin-right="0"
     fit-margin-bottom="0"
     inkscape:zoom="0.73406285"
     inkscape:cx="209.11016"
     inkscape:cy="259.51456"
     inkscape:window-width="1920"
     inkscape:window-height="1013"
     inkscape:window-x="1791"
     inkscape:window-y="-9"
     inkscape:window-maximized="1"
     inkscape:current-layer="layer1" />
  <defs
     id="defs2" />
  <g
     inkscape:label="Camada 1"
     inkscape:groupmode="layer"
     id="layer1"
     transform="translate(-30.144087,-21.362166)">
    <path
       style="fill:#ffffff;stroke-width:0.282222;fill-opacity:1"
       d="m 56.610553,165.55776 c -2.03026,-0.39872 -4.73227,-1.8297 -6.35783,-3.36709 -1.58602,-1.49998 -3.31616,-4.56079 -3.66721,-6.48766 -0.099,-0.54328 -1.88877,-21.61225 -3.97732,-46.81994 -2.08856,-25.207692 -3.83156,-45.850209 -3.87335,-45.872256 -0.0418,-0.02205 -0.76985,-0.352575 -1.61791,-0.734498 -2.03262,-0.915382 -4.51126,-3.368099 -5.61668,-5.557909 -3.78057,-7.489269 0.70591,-16.565982 8.96225,-18.131765 0.86973,-0.164941 6.20693,-0.288066 12.48711,-0.288066 h 10.96814 v -2.501479 c 0,-1.375814 0.12963,-3.185013 0.28807,-4.020444 0.96123,-5.068584 5.05476,-9.162106 10.12334,-10.123343 2.04693,-0.388192 36.396917,-0.388192 38.443847,0 5.06858,0.961237 9.16211,5.054759 10.12334,10.123343 0.15844,0.835431 0.28807,2.64463 0.28807,4.020444 v 2.501479 h 10.96814 c 6.28018,0 11.61738,0.123125 12.48711,0.288066 6.68891,1.268526 11.31212,7.829394 10.17791,14.443623 -0.66813,3.896227 -3.51861,7.753722 -6.83234,9.246051 -0.84806,0.381923 -1.57612,0.712448 -1.61791,0.734498 -0.0418,0.02204 -1.7848,20.664564 -3.87335,45.872256 -2.08855,25.20769 -3.87835,46.27666 -3.97732,46.81994 -0.099,0.54328 -0.62154,1.90081 -1.16126,3.01674 -1.68604,3.48613 -5.16593,6.11203 -9.08461,6.85519 -1.881,0.35673 -71.839417,0.34041 -73.660237,-0.0172 z m 73.820437,-8.89647 c 1.84722,-1.37701 1.521,1.39072 5.45945,-46.32041 1.99589,-24.178653 3.69406,-44.564444 3.7737,-45.301749 l 0.1448,-1.340556 H 93.543193 47.277443 l 0.14565,1.199444 c 0.0801,0.659695 1.72488,20.439944 3.65507,43.956111 1.93018,23.51616 3.58505,43.417 3.67748,44.22409 0.20297,1.77226 1.07024,3.1579 2.3944,3.82556 0.92325,0.46551 3.1262,0.49089 36.73318,0.42333 l 35.751007,-0.0719 z m -59.919607,-8.30996 c -2.3993,-1.18765 -2.09257,1.38803 -4.4926,-37.72604 l -2.13388,-34.776614 0.56869,-1.285618 c 0.4475,-1.011632 0.82691,-1.402814 1.78032,-1.83552 1.56086,-0.708403 2.30133,-0.699922 3.83799,0.04396 2.28389,1.105614 2.00873,-1.240406 4.42412,37.720602 l 2.15737,34.79909 -0.59923,1.23783 c -0.44047,0.90989 -0.91742,1.39188 -1.80026,1.81925 -1.50861,0.73031 -2.27207,0.73093 -3.74252,0.003 z m 21.14904,-0.009 c -0.84625,-0.41888 -1.35061,-0.92848 -1.76389,-1.78221 -0.57396,-1.18566 -0.57878,-1.48504 -0.57878,-36.01294 0,-34.579159 0.004,-34.825559 0.58141,-36.018374 0.61402,-1.268379 2.30641,-2.363845 3.65193,-2.363845 1.34552,0 3.03791,1.095466 3.65192,2.363845 0.57743,1.192815 0.58141,1.439215 0.58141,36.018374 0,34.57916 -0.004,34.82556 -0.58141,36.01837 -0.42212,0.87199 -0.91045,1.36032 -1.78244,1.78244 -1.51248,0.73218 -2.27185,0.73104 -3.76015,-0.006 z m 21.140147,0.0248 c -0.9534,-0.43271 -1.33282,-0.82389 -1.78031,-1.83552 l -0.56869,-1.28562 2.15598,-34.77661 c 2.41752,-38.99551 2.14932,-36.708649 4.42636,-37.742094 1.52412,-0.691729 2.31023,-0.691729 3.83435,0 0.95341,0.432706 1.33282,0.823889 1.78031,1.83552 l 0.5687,1.285618 -2.15598,34.776616 c -2.41752,38.99551 -2.14932,36.70865 -4.42636,37.74209 -0.66639,0.30245 -1.52912,0.5499 -1.91718,0.5499 -0.38805,0 -1.25078,-0.24745 -1.91718,-0.5499 z m 33.41842,-93.59361 c 1.4997,-0.711654 2.22432,-1.941499 2.22432,-3.775204 0,-1.833705 -0.72462,-3.063551 -2.22432,-3.775206 -0.87983,-0.417508 -5.54957,-0.458127 -52.667897,-0.458127 -57.25906,0 -52.87614,-0.145284 -54.26278,1.798683 -0.87675,1.229129 -0.87845,3.637797 -0.003,4.864495 1.38164,1.936931 -3.05334,1.78995 54.22355,1.797062 47.166027,0.0059 51.830547,-0.03411 52.710547,-0.451703 z M 114.67288,35.405799 c -0.0814,-2.445841 -0.19349,-3.029114 -0.72568,-3.775206 -1.32333,-1.855201 -0.68243,-1.798683 -20.396107,-1.798683 -19.71369,0 -19.07279,-0.05652 -20.39612,1.798683 -0.53219,0.746092 -0.64431,1.329365 -0.72569,3.775206 l -0.0962,2.892777 h 21.21806 21.218037 z"
       id="path1123" />
  </g>
</svg>
