<?xml version="1.0" encoding="UTF-8" standalone="no"?>
<!-- Created with Inkscape (http://www.inkscape.org/) -->

<svg
   width="180.5412mm"
   height="180.14992mm"
   viewBox="0 0 180.5412 180.14992"
   version="1.1"
   id="svg5"
   inkscape:version="1.1 (c68e22c387, 2021-05-23)"
   sodipodi:docname="edit_icon.svg"
   xmlns:inkscape="http://www.inkscape.org/namespaces/inkscape"
   xmlns:sodipodi="http://sodipodi.sourceforge.net/DTD/sodipodi-0.dtd"
   xmlns="http://www.w3.org/2000/svg"
   xmlns:svg="http://www.w3.org/2000/svg">
  <sodipodi:namedview
     id="namedview7"
     pagecolor="#505050"
     bordercolor="#eeeeee"
     borderopacity="1"
     inkscape:pageshadow="0"
     inkscape:pageopacity="0"
     inkscape:pagecheckerboard="0"
     inkscape:document-units="mm"
     showgrid="false"
     fit-margin-top="0"
     fit-margin-left="0"
     fit-margin-right="0"
     fit-margin-bottom="0"
     inkscape:zoom="0.73406285"
     inkscape:cx="271.77509"
     inkscape:cy="289.48475"
     inkscape:window-width="1920"
     inkscape:window-height="1013"
     inkscape:window-x="1791"
     inkscape:window-y="-9"
     inkscape:window-maximized="1"
     inkscape:current-layer="layer1" />
  <defs
     id="defs2" />
  <g
     inkscape:label="Camada 1"
     inkscape:groupmode="layer"
     id="layer1"
     transform="translate(-13.534098,-13.59714)">
    <path
       style="fill:#ffffff;stroke-width:0.352778;fill-opacity:1"
       d="m 29.937001,193.21956 c -6.13755,-1.68519 -11.643084,-6.45793 -14.408579,-12.4908 -2.142,-4.67272 -2.055269,-1.87708 -1.951874,-62.91561 l 0.09455,-55.819152 0.827548,-2.469444 c 2.504391,-7.47322 8.389138,-13.0987 15.929396,-15.227587 2.149752,-0.606953 4.343396,-0.647413 35.101386,-0.647413 h 32.80834 l 1.666322,0.979515 c 2.96849,1.744978 4.36775,5.263858 3.42793,8.620599 -0.58538,2.090737 -2.77233,4.358488 -4.782402,4.959081 -1.10148,0.329114 -9.00374,0.433861 -32.73148,0.433861 -34.209939,0 -32.651785,-0.09139 -34.905043,2.047187 -0.551346,0.523282 -1.306883,1.543304 -1.678972,2.26671 -0.659507,1.282202 -0.674224,2.699035 -0.585053,56.325903 l 0.09147,55.01062 1.058333,1.50257 c 0.582084,0.82641 1.75799,1.87194 2.613126,2.3234 l 1.554791,0.82083 h 54.639118 c 53.072692,0 54.676642,-0.0193 55.947982,-0.67325 0.71988,-0.37028 1.73701,-1.12435 2.26029,-1.67569 2.13858,-2.25326 2.04719,-0.69511 2.04719,-34.90505 0,-23.72773 0.10474,-31.62999 0.43386,-32.73147 0.60059,-2.01007 2.86834,-4.19703 4.95908,-4.7824 3.47697,-0.97349 7.0922,0.5547 8.69885,3.67706 l 0.90126,1.75152 v 32.64117 c 0,30.51038 -0.0419,32.78901 -0.64256,34.90601 -1.12515,3.96581 -2.99171,7.16612 -5.9222,10.15389 -2.52148,2.57075 -5.21601,4.28325 -8.58479,5.45602 l -2.84211,0.98942 -57.150002,-0.0268 c -46.678971,-0.0219 -57.466185,-0.11367 -58.875757,-0.5007 z m 49.465767,-63.91984 c -1.0409,-0.64575 -1.7025,-1.82785 -1.7025,-3.0419 0,-1.11855 5.21155,-27.033723 5.65416,-28.116126 0.20106,-0.491684 13.85429,-14.382005 30.340522,-30.867374 l 29.97496,-29.973403 13.31658,13.316584 13.31658,13.316581 -29.9734,29.97496 c -16.48537,16.486228 -30.37569,30.139458 -30.86738,30.340518 -1.17163,0.4791 -27.058242,5.65696 -28.220922,5.64477 -0.4924,-0.005 -1.31976,-0.27273 -1.8386,-0.59461 z m 85.434792,-86.707312 -13.22445,-13.22798 5.64149,-5.664875 c 3.10283,-3.115681 6.594,-6.294917 7.75817,-7.064969 9.30955,-6.157914 22.29959,-2.59142 27.08302,7.435804 2.11212,4.427531 2.5031,8.233265 1.32076,12.856172 -1.10972,4.338938 -2.34933,6.112324 -8.95321,12.808411 -3.3009,3.346979 -6.09156,6.085416 -6.20147,6.085416 -0.10992,0 -6.15086,-5.952592 -13.42431,-13.227979 z"
       id="path836" />
  </g>
</svg>
