<?xml version="1.0" encoding="UTF-8" standalone="no"?>
<!-- Created with Inkscape (http://www.inkscape.org/) -->

<svg
   width="141.20207mm"
   height="141.33704mm"
   viewBox="0 0 141.20207 141.33704"
   version="1.1"
   id="svg5"
   inkscape:version="1.1 (c68e22c387, 2021-05-23)"
   sodipodi:docname="listagem_icone.svg"
   xmlns:inkscape="http://www.inkscape.org/namespaces/inkscape"
   xmlns:sodipodi="http://sodipodi.sourceforge.net/DTD/sodipodi-0.dtd"
   xmlns="http://www.w3.org/2000/svg"
   xmlns:svg="http://www.w3.org/2000/svg">
  <sodipodi:namedview
     id="namedview7"
     pagecolor="#505050"
     bordercolor="#eeeeee"
     borderopacity="1"
     inkscape:pageshadow="0"
     inkscape:pageopacity="0"
     inkscape:pagecheckerboard="0"
     inkscape:document-units="mm"
     showgrid="false"
     fit-margin-top="0"
     fit-margin-left="0"
     fit-margin-right="0"
     fit-margin-bottom="0"
     inkscape:zoom="0.51906082"
     inkscape:cx="164.72058"
     inkscape:cy="276.46086"
     inkscape:window-width="1920"
     inkscape:window-height="1013"
     inkscape:window-x="1791"
     inkscape:window-y="-9"
     inkscape:window-maximized="1"
     inkscape:current-layer="layer1" />
  <defs
     id="defs2" />
  <g
     inkscape:label="Camada 1"
     inkscape:groupmode="layer"
     id="layer1"
     transform="translate(-78.135917,-8.737123)">
    <path
       style="fill:#ffffff;stroke:#ffffff;stroke-width:6;stroke-miterlimit:4;stroke-dasharray:none;stroke-opacity:1;fill-opacity:1"
       d="m 86.90379,146.57998 c -2.485566,-0.86095 -3.78913,-2.01383 -5.13758,-4.54369 l -0.630293,-1.18251 V 79.338161 17.822539 l 0.727579,-1.380219 c 0.924032,-1.752887 2.224731,-3.053586 3.977618,-3.977618 l 1.380219,-0.727579 h 61.515627 61.51561 l 1.38022,0.727579 c 1.83489,0.967257 3.16784,2.344163 4.01204,4.14433 l 0.69316,1.47809 V 79.338161 140.5892 l -0.69316,1.47809 c -0.88108,1.87881 -2.29994,3.29767 -4.17875,4.17875 l -1.47809,0.69316 -60.85416,0.0587 C 91.117361,147.0538 88.215508,147.0344 86.90379,146.58 Z M 123.33696,123.1267 V 104.73816 H 104.94842 86.559875 v 17.09178 c 0,14.98784 0.05117,17.19961 0.415656,17.96772 0.833519,1.75651 0.253491,1.70489 19.229659,1.71156 l 17.13177,0.006 z m 85.863,17.97122 c 1.7611,-0.8357 1.71407,-0.30703 1.71407,-19.26798 v -17.09178 h -41.01041 -41.01041 v 18.21215 c 0,10.01669 0.0794,18.29153 0.17639,18.38854 0.097,0.097 17.96816,0.17639 39.71365,0.17639 35.45702,0 39.62803,-0.0431 40.41671,-0.41732 z m -85.863,-61.761571 V 59.49079 l -18.3224,0.06796 -18.322394,0.06796 -0.06843,19.446874 c -0.03764,10.69578 -0.01161,19.595702 0.05784,19.777603 0.09934,0.26017 4.022924,0.330729 18.390834,0.330729 h 18.26455 z m 87.44478,0.0019 V 59.626743 H 169.90362 129.0255 l -0.0684,19.446874 c -0.0376,10.695781 -0.0115,19.596078 0.0582,19.778442 0.10084,0.264121 8.42996,0.317939 40.94655,0.264584 l 40.81996,-0.06703 V 79.338161 Z m 0.13229,-42.491822 c 0,-18.960948 0.047,-18.432278 -1.71407,-19.267978 -0.79279,-0.376199 -6.75056,-0.41732 -60.463,-0.41732 -53.712447,0 -59.670227,0.04112 -60.463008,0.41732 -1.761108,0.8357 -1.714077,0.30703 -1.714077,19.267978 v 17.091735 h 62.177085 62.17707 z"
       id="path1213" />
  </g>
</svg>
