<?xml version="1.0" encoding="UTF-8" standalone="no"?>
<!-- Created with Inkscape (http://www.inkscape.org/) -->

<svg
   width="7.7915444mm"
   height="4.966125mm"
   viewBox="0 0 7.7915445 4.966125"
   version="1.1"
   id="svg5"
   inkscape:version="1.1 (c68e22c387, 2021-05-23)"
   sodipodi:docname="number_icon.svg"
   xmlns:inkscape="http://www.inkscape.org/namespaces/inkscape"
   xmlns:sodipodi="http://sodipodi.sourceforge.net/DTD/sodipodi-0.dtd"
   xmlns="http://www.w3.org/2000/svg"
   xmlns:svg="http://www.w3.org/2000/svg">
  <sodipodi:namedview
     id="namedview7"
     pagecolor="#505050"
     bordercolor="#eeeeee"
     borderopacity="1"
     inkscape:pageshadow="0"
     inkscape:pageopacity="0"
     inkscape:pagecheckerboard="0"
     inkscape:document-units="mm"
     showgrid="false"
     fit-margin-top="0"
     fit-margin-left="0"
     fit-margin-right="0"
     fit-margin-bottom="0"
     inkscape:zoom="1.4681257"
     inkscape:cx="-88.207706"
     inkscape:cy="82.077441"
     inkscape:window-width="1920"
     inkscape:window-height="1013"
     inkscape:window-x="1791"
     inkscape:window-y="-9"
     inkscape:window-maximized="1"
     inkscape:current-layer="layer1" />
  <defs
     id="defs2" />
  <g
     inkscape:label="Camada 1"
     inkscape:groupmode="layer"
     id="layer1"
     transform="translate(-273.21788,-13.583956)">
    <path
       style="fill:#7e3bb2;fill-opacity:1;stroke-width:0.0152461"
       d="m 273.40205,18.524044 c -0.0336,-0.0158 -0.0831,-0.05373 -0.1099,-0.08428 -0.0806,-0.09186 -0.0872,-0.144973 -0.0594,-0.482846 0.088,-1.068894 0.10578,-1.501162 0.10886,-2.645198 0.003,-1.149288 5e-5,-1.107797 0.093,-1.267108 0.0543,-0.09312 0.20618,-0.230329 0.3063,-0.276755 0.0726,-0.03368 0.10961,-0.04084 0.21011,-0.04066 0.1365,2.35e-4 0.19253,0.0216 0.25676,0.09793 0.0216,0.0257 0.0447,0.07226 0.0514,0.103459 0.007,0.0312 0.0119,0.571279 0.0116,1.200181 -4.3e-4,1.166713 -0.01,1.449127 -0.0764,2.309784 -0.0467,0.602938 -0.0517,0.629632 -0.14635,0.787145 -0.14538,0.241866 -0.45848,0.386481 -0.64595,0.298352 z m 5.48891,-0.202279 c -0.2393,-0.02631 -0.5332,-0.133228 -0.64577,-0.234922 -0.0865,-0.07818 -0.11476,-0.160839 -0.10609,-0.310662 l 0.007,-0.12026 -0.0563,0.07046 c -0.0761,0.09527 -0.25572,0.26575 -0.40062,0.380286 -0.0655,0.0518 -0.12258,0.09419 -0.12676,0.09419 -0.004,0 -0.0242,-0.01967 -0.0444,-0.04371 -0.0485,-0.05765 -0.15758,-0.103008 -0.35567,-0.147918 -0.57236,-0.129761 -1.13898,-0.06155 -1.81627,0.218636 -0.18917,0.07826 -0.21568,0.08524 -0.32779,0.08624 -0.14228,0.0013 -0.21087,-0.03061 -0.26985,-0.125453 -0.0302,-0.04856 -0.0351,-0.0766 -0.0351,-0.201563 0,-0.13268 0.004,-0.153651 0.0489,-0.243938 0.0686,-0.138551 0.11523,-0.189439 0.34433,-0.375739 0.46762,-0.380259 0.82599,-0.783108 0.9943,-1.117715 0.21456,-0.426541 0.14539,-0.821076 -0.20596,-1.174791 -0.15916,-0.160241 -0.34869,-0.288261 -0.63581,-0.429467 -0.15799,-0.0777 -0.23164,-0.122922 -0.26387,-0.162025 -0.13749,-0.166801 -0.0685,-0.468226 0.15969,-0.697304 0.19864,-0.199453 0.36427,-0.239351 0.57991,-0.139691 0.65164,0.301166 1.0888,0.68502 1.30459,1.145491 0.10339,0.220625 0.12637,0.330878 0.12741,0.611286 8.5e-4,0.228202 -0.002,0.256723 -0.0499,0.442137 -0.0862,0.336439 -0.22937,0.663481 -0.41901,0.957223 -0.0476,0.07366 -0.0865,0.138161 -0.0865,0.143326 0,0.0052 0.0653,0.0051 0.14515,-1.37e-4 0.35306,-0.02319 0.67387,0.0349 1.08464,0.196389 0.32609,0.128201 0.38842,0.172774 0.39226,0.28053 l 0.002,0.04669 0.0293,-0.04208 c 0.0549,-0.07888 0.19138,-0.199237 0.2709,-0.238859 0.12366,-0.06162 0.23201,-0.05575 0.39112,0.02119 0.20972,0.101419 0.31442,0.126648 0.4948,0.119238 0.13798,-0.0057 0.16625,-0.01188 0.25018,-0.05495 0.18381,-0.09432 0.29588,-0.235187 0.36379,-0.457276 0.0353,-0.11537 0.0397,-0.151823 0.0337,-0.278457 -0.006,-0.128443 -0.0129,-0.15693 -0.0574,-0.240405 -0.1193,-0.223835 -0.36156,-0.338167 -0.71615,-0.337986 -0.19127,9.2e-5 -0.4033,0.02714 -0.59348,0.0757 -0.22078,0.05637 -0.35706,0.03365 -0.44826,-0.07473 -0.0912,-0.108434 -0.0965,-0.301949 -0.0128,-0.477131 0.0524,-0.109852 0.10772,-0.170792 0.401,-0.441979 0.0972,-0.08986 0.20263,-0.202459 0.23434,-0.25023 l 0.0576,-0.08686 -0.0411,-0.03536 c -0.0226,-0.01945 -0.0797,-0.04659 -0.12696,-0.06032 -0.11622,-0.03379 -0.46126,-0.0225 -0.71894,0.02352 -0.22711,0.04056 -0.308,0.02948 -0.39106,-0.05359 -0.1888,-0.188799 -0.009,-0.701781 0.30132,-0.861987 0.0712,-0.03668 0.27574,-0.07924 0.54477,-0.113321 0.24896,-0.03154 0.60794,-0.02395 0.76247,0.01613 0.39559,0.102584 0.59569,0.363444 0.59629,0.777346 2.3e-4,0.160828 -0.043,0.351991 -0.10867,0.480748 -0.0166,0.0326 -0.0302,0.06298 -0.0302,0.0675 0,0.0045 0.0228,0.0082 0.0507,0.0082 0.0966,0 0.33872,0.04945 0.46445,0.09487 0.31103,0.112353 0.56655,0.365361 0.68724,0.68048 0.0694,0.181132 0.0853,0.278592 0.085,0.520569 -2.9e-4,0.248986 -0.0233,0.386954 -0.10585,0.635154 -0.29913,0.899228 -1.18043,1.528709 -2.01223,1.43726 z"
       id="path2091" />
  </g>
</svg>
