<?xml version="1.0" encoding="UTF-8" standalone="no"?>
<!-- Created with Inkscape (http://www.inkscape.org/) -->

<svg
   width="185.57655mm"
   height="265.48468mm"
   viewBox="0 0 185.57655 265.48468"
   version="1.1"
   id="svg5"
   inkscape:version="1.1 (c68e22c387, 2021-05-23)"
   sodipodi:docname="street_icon.svg"
   xmlns:inkscape="http://www.inkscape.org/namespaces/inkscape"
   xmlns:sodipodi="http://sodipodi.sourceforge.net/DTD/sodipodi-0.dtd"
   xmlns="http://www.w3.org/2000/svg"
   xmlns:svg="http://www.w3.org/2000/svg">
  <sodipodi:namedview
     id="namedview7"
     pagecolor="#505050"
     bordercolor="#eeeeee"
     borderopacity="1"
     inkscape:pageshadow="0"
     inkscape:pageopacity="0"
     inkscape:pagecheckerboard="0"
     inkscape:document-units="mm"
     showgrid="false"
     fit-margin-top="0"
     fit-margin-left="0"
     fit-margin-right="0"
     fit-margin-bottom="0"
     inkscape:zoom="0.36703143"
     inkscape:cx="333.75889"
     inkscape:cy="889.5696"
     inkscape:window-width="1920"
     inkscape:window-height="1013"
     inkscape:window-x="1791"
     inkscape:window-y="-9"
     inkscape:window-maximized="1"
     inkscape:current-layer="layer1" />
  <defs
     id="defs2" />
  <g
     inkscape:label="Camada 1"
     inkscape:groupmode="layer"
     id="layer1"
     transform="translate(-138.43815,138.08523)">
    <path
       style="fill:#7e3bb2;fill-opacity:1;stroke-width:0.518367"
       d="m 147.6234,126.79721 c -5.49258,-1.29335 -9.18272,-4.85629 -9.18525,-8.86862 -0.002,-2.59509 32.6095,-246.14127 33.20604,-247.9891 0.76359,-2.36525 4.013,-5.90897 6.42121,-7.00281 1.9248,-0.87427 3.79573,-0.9559 22.14759,-0.96633 l 20.04519,-0.0114 -0.22568,4.7949 c -0.33072,7.02663 -1.24633,38.11883 -1.24633,42.322785 0,5.42732 -0.4708,5.237416 12.98426,5.237416 11.20815,0 11.36479,-0.01508 12.10411,-1.166327 0.63956,-0.995898 0.68291,-3.89319 0.29669,-19.827554 -0.24877,-10.26367 -0.46381,-21.52866 -0.47787,-25.03331 l -0.0256,-6.37209 20.95005,0.15168 20.95005,0.15168 2.23922,1.57437 c 2.58066,1.81442 4.37538,4.25865 5.08658,6.9274 0.61265,2.2989 31.12104,244.51073 31.12104,247.0757 0,3.45554 -2.11458,6.10171 -6.48605,8.1166 l -2.58538,1.19165 -33.04591,0.1478 -33.04593,0.1478 -0.0158,-6.36821 c -0.0298,-12.02545 -0.97368,-46.333644 -1.298,-47.178822 -0.17845,-0.465022 -1.04035,-1.095061 -1.91534,-1.400084 -1.72701,-0.602042 -26.04632,-0.790318 -28.87997,-0.223587 -2.97951,0.595899 -2.98452,0.62922 -3.6126,24.032262 -0.31753,11.831731 -0.71274,23.669951 -0.87824,26.307141 l -0.30091,4.7949 -31.18325,-0.0521 c -17.15081,-0.0286 -32.0656,-0.25981 -33.144,-0.51374 z m 98.89004,-71.481276 c 0.88532,-0.978273 0.90871,-2.322903 0.45893,-26.39357 -0.44371,-23.7456199 -0.53624,-25.4316359 -1.45122,-26.4426799 -0.94147,-1.040317 -1.46012,-1.0799 -14.1494,-1.0799 -7.89555,0 -13.56482,0.210173 -14.15246,0.524666 -0.53919,0.28857 -1.09688,1.279947 -1.2393,2.203061 -0.14243,0.923119 -0.50519,10.7757429 -0.80614,21.8947219 -0.81757,30.206577 -0.83023,28.826325 0.27184,29.632179 0.7367,0.538688 4.18518,0.692311 15.54084,0.692311 13.90768,0 14.63793,-0.04847 15.52691,-1.030789 z m -2.65172,-69.960723 c 0.71398,-0.271458 1.49639,-0.912938 1.7387,-1.42551 0.24326,-0.514599 0.19934,-12.213953 -0.0981,-26.124532 -0.42718,-19.98019 -0.68582,-25.369551 -1.25005,-26.047959 -0.6238,-0.750016 -2.19634,-0.855384 -12.76613,-0.855384 -10.5547,0 -12.14274,0.106094 -12.76231,0.852636 -0.54678,0.658824 -0.85592,5.637069 -1.36003,21.901021 -0.35882,11.576609 -0.5938,23.258106 -0.52218,25.958882 0.12353,4.657775 0.19693,4.944173 1.42615,5.564809 1.57322,0.794315 23.56979,0.945611 25.59393,0.176037 z"
       id="path2306" />
  </g>
</svg>
