<?xml version="1.0" encoding="UTF-8" standalone="no"?>
<!-- Created with Inkscape (http://www.inkscape.org/) -->

<svg
   width="144.49779mm"
   height="101.59999mm"
   viewBox="0 0 144.49779 101.59999"
   version="1.1"
   id="svg5"
   inkscape:version="1.1 (c68e22c387, 2021-05-23)"
   sodipodi:docname="cep_icon.svg"
   xmlns:inkscape="http://www.inkscape.org/namespaces/inkscape"
   xmlns:sodipodi="http://sodipodi.sourceforge.net/DTD/sodipodi-0.dtd"
   xmlns="http://www.w3.org/2000/svg"
   xmlns:svg="http://www.w3.org/2000/svg">
  <sodipodi:namedview
     id="namedview7"
     pagecolor="#505050"
     bordercolor="#eeeeee"
     borderopacity="1"
     inkscape:pageshadow="0"
     inkscape:pageopacity="0"
     inkscape:pagecheckerboard="0"
     inkscape:document-units="mm"
     showgrid="false"
     fit-margin-top="0"
     fit-margin-left="0"
     fit-margin-right="0"
     fit-margin-bottom="0"
     inkscape:zoom="0.73406285"
     inkscape:cx="3.4057029"
     inkscape:cy="224.09525"
     inkscape:window-width="1920"
     inkscape:window-height="1013"
     inkscape:window-x="1791"
     inkscape:window-y="-9"
     inkscape:window-maximized="1"
     inkscape:current-layer="layer1" />
  <defs
     id="defs2" />
  <g
     inkscape:label="Camada 1"
     inkscape:groupmode="layer"
     id="layer1"
     transform="translate(-104.04697,-89.482338)">
    <path
       style="fill:#7e3bb2;fill-opacity:1;stroke-width:0.282222"
       d="m 107.12278,190.29653 c -1.2177,-0.63614 -1.65387,-1.07231 -2.29,-2.29001 l -0.78581,-1.5042 V 140.28233 94.062348 l 0.78581,-1.5042 c 0.63613,-1.21771 1.0723,-1.65387 2.29,-2.29001 l 1.5042,-0.7858 h 67.66888 67.66888 l 1.5042,0.7858 c 1.2177,0.63614 1.65387,1.0723 2.29,2.29001 l 0.78581,1.5042 v 46.219982 46.21999 l -0.78581,1.5042 c -0.63613,1.2177 -1.0723,1.65387 -2.29,2.29001 l -1.5042,0.7858 h -67.66888 -67.66888 z m 130.13308,-50.0142 v -39.5111 h -60.96 -60.96 v 39.5111 39.51111 h 60.96 60.96 z m -93.00344,17.19741 c -1.2051,-0.35043 -3.14013,-2.08484 -3.87069,-3.4694 -0.46427,-0.87988 -0.61688,-1.65787 -0.61688,-3.14467 0,-2.38153 0.6521,-3.81592 2.4245,-5.33302 2.53537,-2.17019 6.41099,-2.17019 8.94636,0 1.7724,1.5171 2.4245,2.95149 2.4245,5.33302 0,1.4868 -0.15261,2.26479 -0.61688,3.14467 -0.76872,1.45688 -2.67656,3.11818 -4.00458,3.4871 -1.20727,0.33538 -3.50193,0.32671 -4.68633,-0.0177 z m 19.75556,0 c -1.20511,-0.35043 -3.14013,-2.08484 -3.87069,-3.4694 -0.86309,-1.63574 -0.86309,-4.65361 0,-6.28935 2.09851,-3.9771 7.40313,-5.05655 10.75397,-2.18834 1.7724,1.5171 2.42451,2.95149 2.42451,5.33302 0,1.4868 -0.15262,2.26479 -0.61689,3.14467 -0.76871,1.45688 -2.67655,3.11818 -4.00457,3.4871 -1.20728,0.33538 -3.50194,0.32671 -4.68633,-0.0177 z m 19.75555,0 c -1.20511,-0.35043 -3.14013,-2.08484 -3.87069,-3.4694 -0.86309,-1.63574 -0.86309,-4.65361 0,-6.28935 2.09851,-3.9771 7.40313,-5.05655 10.75398,-2.18834 1.7724,1.5171 2.4245,2.95149 2.4245,5.33302 0,1.4868 -0.15261,2.26479 -0.61688,3.14467 -0.76872,1.45688 -2.67656,3.11818 -4.00458,3.4871 -1.20727,0.33538 -3.50193,0.32671 -4.68633,-0.0177 z m 19.75555,0 c -1.2051,-0.35043 -3.14012,-2.08484 -3.87068,-3.4694 -0.8631,-1.63574 -0.8631,-4.65361 0,-6.28935 2.09851,-3.9771 7.40312,-5.05655 10.75397,-2.18834 1.7724,1.5171 2.4245,2.95149 2.4245,5.33302 0,1.4868 -0.15261,2.26479 -0.61688,3.14467 -0.76871,1.45688 -2.67655,3.11818 -4.00457,3.4871 -1.20728,0.33538 -3.50194,0.32671 -4.68634,-0.0177 z m -59.25544,-29.77478 c -2.88825,-1.50898 -4.01071,-4.71429 -2.61056,-7.4548 0.34925,-0.68359 1.12305,-1.63124 1.71954,-2.10591 l 1.08453,-0.86303 h 31.83871 31.83872 l 1.08453,0.86303 c 1.35342,1.077 2.35453,2.98998 2.35453,4.4992 0,1.50917 -1.00109,3.42217 -2.35448,4.49919 l -1.08447,0.86303 -31.51219,0.0708 c -28.15423,0.0633 -31.60241,0.0237 -32.35886,-0.37153 z"
       id="path1428" />
  </g>
</svg>
