<?xml version="1.0" encoding="UTF-8" standalone="no"?>
<!-- Created with Inkscape (http://www.inkscape.org/) -->

<svg
   width="135.46663mm"
   height="135.41109mm"
   viewBox="0 0 135.46663 135.41109"
   version="1.1"
   id="svg5"
   inkscape:version="1.1 (c68e22c387, 2021-05-23)"
   sodipodi:docname="city_icon.svg"
   xmlns:inkscape="http://www.inkscape.org/namespaces/inkscape"
   xmlns:sodipodi="http://sodipodi.sourceforge.net/DTD/sodipodi-0.dtd"
   xmlns="http://www.w3.org/2000/svg"
   xmlns:svg="http://www.w3.org/2000/svg">
  <sodipodi:namedview
     id="namedview7"
     pagecolor="#505050"
     bordercolor="#eeeeee"
     borderopacity="1"
     inkscape:pageshadow="0"
     inkscape:pageopacity="0"
     inkscape:pagecheckerboard="0"
     inkscape:document-units="mm"
     showgrid="false"
     fit-margin-top="0"
     fit-margin-left="0"
     fit-margin-right="0"
     fit-margin-bottom="0"
     inkscape:zoom="0.73406285"
     inkscape:cx="-116.47504"
     inkscape:cy="561.94098"
     inkscape:window-width="1920"
     inkscape:window-height="1013"
     inkscape:window-x="1791"
     inkscape:window-y="-9"
     inkscape:window-maximized="1"
     inkscape:current-layer="layer1" />
  <defs
     id="defs2" />
  <g
     inkscape:label="Camada 1"
     inkscape:groupmode="layer"
     id="layer1"
     transform="translate(-135.79453,-0.17836745)">
    <path
       style="fill:#7e3bb2;fill-opacity:1;stroke-width:0.264583"
       d="m 140.50076,134.82278 c -0.71263,-0.63673 -0.85806,-0.95711 -0.85806,-1.89027 0,-1.0063 0.12901,-1.237 1.23574,-2.20989 2.77011,-2.4351 12.72931,-7.93066 18.79073,-10.36885 l 2.57599,-1.03619 0.004,-5.22552 c 0.002,-2.87404 -0.0856,-5.22622 -0.19474,-5.22708 -1.89648,-0.0149 -7.68837,-1.38419 -9.14972,-2.16312 -0.36565,-0.1949 -0.72288,-0.10269 -1.45521,0.3756 -4.53071,2.95907 -10.34192,1.97113 -13.59927,-2.31196 -1.15925,-1.52431 -2.05569,-4.12034 -2.05569,-5.953127 0,-1.61264 0.83925,-4.32995 1.74828,-5.66055 l 0.70389,-1.03033 -0.55307,-1.6155 c -0.87437,-2.554 -1.1198,-3.722554 -1.34671,-6.411868 -0.42489,-5.035839 0.4498,-9.812975 2.60983,-14.253625 5.54677,-11.403158 18.13515,-17.495575 30.33132,-14.67949 1.17723,0.271822 2.78457,0.73905 3.57187,1.038286 0.78731,0.299235 1.52076,0.544123 1.6299,0.544197 0.10914,7.2e-5 0.1991,-2.708539 0.19991,-6.019138 8e-4,-3.36551 0.12326,-6.457807 0.27771,-7.013961 0.46669,-1.680504 1.09936,-1.902814 5.70653,-2.005219 l 4.02629,-0.08949 0.0872,-3.278675 c 0.0845,-3.177579 0.10983,-3.301272 0.82058,-4.011548 l 0.73335,-0.732875 9.98227,-0.0672 c 7.64718,-0.05148 10.137,0.01127 10.64373,0.268266 1.18487,0.600903 1.58663,1.866821 1.58709,5.000704 l 5.3e-4,2.820525 4.03489,0.09151 c 4.29609,0.09744 4.92005,0.265706 5.47128,1.475529 0.19639,0.431289 0.28329,10.446855 0.28329,32.663369 v 32.04134 l 2.18282,-0.16992 c 1.20054,-0.0935 2.74835,-0.17063 3.43958,-0.17151 l 1.25677,-0.002 V 60.187384 12.831143 l 0.77205,-0.86407 0.77204,-0.86407 h 21.47466 21.47465 l 0.77205,0.86407 0.77205,0.86407 v 50.291978 c 0,46.748639 -0.0315,50.345329 -0.4473,51.049189 -0.81886,1.38622 -1.32519,1.43119 -7.54107,0.66967 -13.27821,-1.62673 -22.57153,-2.12211 -36.19705,-1.92947 -14.34885,0.20286 -24.13809,1.15662 -36.11562,3.51872 -7.53132,1.48526 -18.51477,4.51225 -22.9526,6.32564 -0.35183,0.14376 -0.46302,0.49911 -0.46302,1.47963 0,1.05065 -0.14283,1.45029 -0.76864,2.15069 -0.64618,0.72321 -0.94336,0.85566 -1.86544,0.83149 -1.11844,-0.0293 -2.39301,-0.87173 -2.39301,-1.58161 0,-0.18432 -0.10847,-0.40218 -0.24106,-0.48412 -0.25153,-0.15546 -7.74311,3.23744 -9.8131,4.4443 l -1.19063,0.69416 31.43241,0.003 c 27.51394,0.003 31.52874,0.053 32.20518,0.4028 0.93222,0.48208 1.31762,1.13909 1.31762,2.24623 0,1.10714 -0.3854,1.76415 -1.31762,2.24622 -0.67827,0.35074 -5.22267,0.39961 -37.16194,0.39961 h -36.38945 z m 34.12761,-24.07411 c 0.04,-2.34486 0.006,-4.26338 -0.0746,-4.26338 -0.081,0 -0.59,0.18933 -1.13103,0.42073 -0.54103,0.23141 -2.05526,0.69546 -3.36494,1.03123 l -2.38125,0.6105 -0.0724,4.3631 -0.0724,4.3631 3.51199,-1.13095 3.51199,-1.13095 z m 9.98146,1.69843 c 7.36395,-1.70214 16.4712,-3.18651 23.54793,-3.83803 1.74625,-0.16077 3.56195,-0.35259 4.03489,-0.42628 l 0.8599,-0.13398 V 77.501428 46.954043 h -4.1214 -4.12139 l -0.7734,-0.773399 c -0.77281,-0.772816 -0.7734,-0.775895 -0.7734,-4.101041 V 38.75196 h -6.59355 -6.59356 l -0.0872,3.432987 c -0.1207,4.75352 0.0649,4.595034 -5.58371,4.769096 l -4.29305,0.132291 -0.0708,6.409685 -0.0708,6.409684 2.33442,2.321565 c 1.28393,1.276861 2.8591,3.125237 3.50039,4.107503 l 1.16597,1.785937 h 9.35398 c 5.90956,0 9.54144,0.100317 9.86303,0.272426 0.64169,0.343424 1.30826,1.611275 1.30826,2.488385 0,0.368734 -0.34728,1.059257 -0.77174,1.534493 l -0.77173,0.864071 -8.3175,0.07668 -8.31749,0.07667 0.48474,2.034619 c 0.26661,1.119042 0.56156,2.870475 0.65545,3.892076 0.16383,1.782736 0.21209,1.886723 1.19968,2.585059 l 1.02899,0.727604 h 6.33401 c 6.84394,0 7.44703,0.101372 8.09856,1.361289 0.6144,1.18813 0.46738,2.040858 -0.52256,3.030794 l -0.89958,0.899583 h -4.64493 -4.64493 l 0.41193,1.124476 c 0.51631,1.40944 0.7573,5.51998 0.41105,7.01146 l -0.26104,1.12448 h 4.36396 4.36396 l 0.89958,0.89958 c 0.98994,0.98994 1.13696,1.84267 0.52256,3.030797 -0.64066,1.23888 -1.30147,1.36129 -7.34892,1.36129 h -5.58438 l -1.37202,1.2976 c -2.72228,2.57462 -6.47165,3.87829 -10.51921,3.65757 l -2.31511,-0.12624 v 3.00949 c 0,2.23117 0.0855,3.00949 0.33072,3.00949 0.1819,0 2.11666,-0.41281 4.29948,-0.91735 z m 2.51355,-53.93247 c -1.28516,-0.438264 -2.02039,-1.914536 -1.59517,-3.202966 0.57754,-1.74996 0.53399,-1.743038 10.96382,-1.743038 9.35554,0 9.38957,0.0021 10.0724,0.595312 1.48097,1.286791 1.0633,3.543041 -0.80001,4.32158 -1.18676,0.495861 -17.19901,0.520866 -18.64104,0.02911 z m 78.84583,45.19253 v -6.217707 h -17.72708 -17.72708 v 5.027087 5.02708 l 4.16718,0.004 c 8.12976,0.007 24.63765,1.25205 31.08854,2.34382 0.10914,0.0185 0.19844,-2.76438 0.19844,-6.18412 z m -118.37035,-0.52493 c 0.51685,-0.21596 1.25717,-0.73194 1.64515,-1.14662 1.53814,-1.64403 2.377,-1.72236 5.09993,-0.47626 1.95935,0.89667 4.29963,1.55704 6.65184,1.87699 l 1.25677,0.17095 v -2.21803 c 0,-3.643797 -0.31994,-4.246887 -4.54413,-8.565877 -3.48571,-3.56393 -3.65795,-3.7906 -3.65795,-4.813891 0,-1.470927 0.83366,-2.411015 2.31417,-2.609593 1.11862,-0.15004 1.1314,-0.142089 3.50531,2.180907 l 2.3826,2.331497 0.006,-1.833818 c 0.0136,-3.854791 0.9915,-6.022901 4.12053,-9.135687 2.06206,-2.05134 2.3011,-2.211106 3.30824,-2.211106 0.89029,0 1.2235,0.154363 1.85226,0.858056 1.32585,1.483895 0.96698,2.706516 -1.49203,5.083043 -2.52773,2.442948 -2.49128,2.268238 -2.49799,11.972392 -0.005,7.468017 0.0404,8.400517 0.41056,8.400517 0.78117,0 4.30241,-1.30375 6.10721,-2.26122 2.06239,-1.094117 2.56565,-1.081687 4.44436,0.10975 1.61152,1.022 3.50434,1.45782 5.60066,1.28954 5.81169,-0.4665 9.54308,-6.471657 7.46779,-12.018377 -0.65244,-1.74379 -2.64201,-3.920717 -4.40557,-4.820416 -1.42074,-0.7248 -1.90375,-1.689206 -1.90375,-3.801078 0,-5.671238 -2.37585,-11.121326 -6.7166,-15.407566 -2.67724,-2.643626 -5.12543,-4.183107 -8.36944,-5.262906 -11.99255,-3.991837 -24.97173,3.160175 -28.03687,15.449364 -1.30289,5.22373 -0.9307,8.635788 1.69773,15.564182 0.46407,1.22324 0.23801,2.04048 -0.8387,3.03206 -1.75424,1.61557 -2.32225,3.74503 -1.51457,5.678087 0.5482,1.31203 1.11232,1.90208 2.37116,2.48014 1.2895,0.59214 2.48824,0.62583 3.73485,0.10497 z M 265.96921,54.230084 V 16.262378 h -17.72708 -17.72708 v 37.967706 37.967709 h 17.72708 17.72708 z m -28.23524,30.109248 c -0.32245,-0.06241 -0.888,-0.472053 -1.25677,-0.910309 l -0.67049,-0.796832 v -5.953178 -5.953178 l 0.7734,-0.773395 0.7734,-0.773398 h 10.88141 c 11.90598,0 12.05722,0.01828 12.68486,1.533538 0.2219,0.53572 0.29249,2.472629 0.2357,6.46762 -0.0908,6.385467 -0.13789,6.549054 -2.03895,7.07713 -0.91619,0.2545 -20.11104,0.328113 -21.38256,0.082 z m 18.18107,-7.487374 v -2.38125 h -7.40833 -7.40833 v 2.38125 2.38125 h 7.40833 7.40833 z M 237.4969,62.040565 c -0.30732,-0.124171 -0.81334,-0.549399 -1.12448,-0.944951 -0.53949,-0.685858 -0.56571,-0.992717 -0.56571,-6.621873 0,-5.857694 0.005,-5.908349 0.63835,-6.645049 l 0.63835,-0.742358 10.92763,-0.0748 c 7.35721,-0.05036 11.15201,0.01815 11.61436,0.209653 1.43411,0.594026 1.58168,1.2783 1.57741,7.3143 -0.004,6.120939 -0.0985,6.554276 -1.58728,7.300954 -0.83274,0.417658 -1.92502,0.461018 -11.24111,0.446249 -5.67531,-0.009 -10.5702,-0.117956 -10.87752,-0.242128 z m 18.41814,-7.413606 v -2.38125 h -7.40833 -7.40833 v 2.38125 2.38125 h 7.40833 7.40833 z M 237.23095,39.660581 c -1.32362,-0.660394 -1.42479,-1.193149 -1.41835,-7.469507 0.006,-6.186385 0.0572,-6.429599 1.49807,-7.16648 0.39765,-0.203359 3.93415,-0.29555 11.3374,-0.29555 h 10.75947 l 0.91375,0.913744 0.91374,0.913744 -0.0803,5.959945 -0.0803,5.959943 -0.73338,0.733084 -0.73339,0.733081 -10.77599,0.06474 c -9.30739,0.05591 -10.88839,0.0087 -11.60071,-0.346742 z m 18.68409,-7.258621 v -2.38125 h -7.40833 -7.40833 v 2.38125 2.38125 h 7.40833 7.40833 z m -32.33512,102.42082 c -0.71008,-0.63446 -0.85806,-0.95853 -0.85806,-1.87916 0,-0.92063 0.14798,-1.2447 0.85806,-1.87916 0.97323,-0.86958 1.88041,-0.96921 2.96915,-0.32607 2.32008,1.3705 1.28642,4.85106 -1.44067,4.85106 -0.36873,0 -1.05655,-0.345 -1.52848,-0.76667 z m 11.64167,0 c -0.71008,-0.63446 -0.85806,-0.95853 -0.85806,-1.87916 0,-0.92063 0.14798,-1.2447 0.85806,-1.87916 l 0.85805,-0.76667 h 16.69104 16.69103 l 0.89958,0.89958 c 0.64823,0.64823 0.89959,1.13615 0.89959,1.74625 0,0.6101 -0.25136,1.09802 -0.89959,1.74625 l -0.89958,0.89958 H 252.77068 236.07964 Z M 149.83271,25.086255 c -2.3894,-0.836318 -4.41097,-2.61766 -5.66001,-4.987419 -0.77779,-1.475691 -0.83676,-1.77424 -0.83729,-4.238897 -5.3e-4,-2.463296 0.0611,-2.776716 0.86905,-4.417843 1.5558,-3.1602665 4.46425,-5.1240305 8.032,-5.4231375 l 1.91156,-0.160258 1.57,-1.678332 c 4.8093,-5.14115498 12.78189,-5.357086 17.89024,-0.484543 4.11639,3.926365 5.19185,10.4001145 2.52147,15.1779465 -0.35641,0.637682 -0.64801,1.263488 -0.64801,1.39068 0,0.127192 2.30548,0.231259 5.12329,0.231259 h 5.12329 l 0.69754,0.697538 c 1.00007,1.00007 0.97992,2.637087 -0.0445,3.618585 l -0.74208,0.71096 -17.31573,-0.01263 c -14.95863,-0.01091 -17.47573,-0.06862 -18.49082,-0.423909 z m 15.92089,-4.842028 c 2.87569,-0.471013 4.75608,-1.853408 5.91937,-4.351691 1.29101,-2.772612 0.66012,-5.9882895 -1.62273,-8.2711475 -1.48396,-1.483957 -3.21529,-2.206928 -5.28504,-2.206928 -2.59278,0 -5.38025,1.799252 -6.64055,4.286333 -0.80452,1.5876475 -1.91899,2.1895415 -3.31358,1.7895775 -2.19184,-0.628612 -4.40501,0.02679 -5.55792,1.645906 -0.91861,1.290067 -1.01143,3.751608 -0.1868,4.953856 0.82894,1.208527 1.82868,1.913363 3.04875,2.149432 1.49314,0.288905 11.88143,0.292455 13.6385,0.0047 z m 29.02235,4.505169 c -0.57259,-0.572585 -0.7734,-1.024412 -0.7734,-1.740144 0,-1.37059 1.16708,-2.513541 2.56661,-2.513541 1.22997,0 2.00981,0.499501 2.45398,1.571826 1.06907,2.580957 -2.25141,4.677645 -4.24719,2.681859 z"
       id="path1643" />
  </g>
</svg>
