<?xml version="1.0" encoding="UTF-8" standalone="no"?>
<!-- Created with Inkscape (http://www.inkscape.org/) -->

<svg
   width="180.67383mm"
   height="135.49524mm"
   viewBox="0 0 180.67383 135.49524"
   version="1.1"
   id="svg5"
   inkscape:version="1.1 (c68e22c387, 2021-05-23)"
   sodipodi:docname="name_icon.svg"
   xmlns:inkscape="http://www.inkscape.org/namespaces/inkscape"
   xmlns:sodipodi="http://sodipodi.sourceforge.net/DTD/sodipodi-0.dtd"
   xmlns="http://www.w3.org/2000/svg"
   xmlns:svg="http://www.w3.org/2000/svg">
  <sodipodi:namedview
     id="namedview7"
     pagecolor="#505050"
     bordercolor="#eeeeee"
     borderopacity="1"
     inkscape:pageshadow="0"
     inkscape:pageopacity="0"
     inkscape:pagecheckerboard="0"
     inkscape:document-units="mm"
     showgrid="false"
     fit-margin-top="0"
     fit-margin-left="0"
     fit-margin-right="0"
     fit-margin-bottom="0"
     inkscape:zoom="0.73406285"
     inkscape:cx="154.61891"
     inkscape:cy="422.9883"
     inkscape:window-width="1920"
     inkscape:window-height="1013"
     inkscape:window-x="1791"
     inkscape:window-y="-9"
     inkscape:window-maximized="1"
     inkscape:current-layer="layer1" />
  <defs
     id="defs2" />
  <g
     inkscape:label="Camada 1"
     inkscape:groupmode="layer"
     id="layer1"
     transform="translate(-64.316318,-36.793364)">
    <path
       style="fill:#7e3bb2;fill-opacity:1;stroke-width:0.352778"
       d="m 80.544096,171.71195 c -3.637012,-0.78033 -7.218893,-2.78284 -10.055992,-5.62195 -2.868165,-2.8702 -4.485999,-5.69591 -5.474893,-9.56245 -0.677674,-2.64968 -0.696893,-4.08375 -0.696893,-52.00085 0,-47.917106 0.01922,-49.351172 0.696893,-52.000854 0.989297,-3.868114 2.606632,-6.692434 5.474893,-9.560695 2.868262,-2.868261 5.692581,-4.485597 9.560695,-5.474893 2.669745,-0.682806 4.177298,-0.696894 74.578631,-0.696894 70.40133,0 71.90889,0.01409 74.57863,0.696894 3.86196,0.987722 6.6901,2.606733 9.59228,5.491236 2.90227,2.884584 4.79329,6.328542 5.60948,10.216037 0.77505,3.691512 0.77716,98.951349 0.002,102.658339 -1.62852,7.79077 -8.07416,14.23549 -15.87572,15.87344 -3.60453,0.75679 -144.459175,0.74026 -147.990283,-0.0174 z m 71.260914,-30.33963 c 0.67899,-0.39887 1.58919,-1.35137 2.02267,-2.11667 1.65727,-2.92588 0.81263,-11.73241 -1.53981,-16.05463 -2.56229,-4.70774 -6.83232,-8.3169 -11.94176,-10.09352 l -2.8284,-0.98348 -15.10284,-0.11831 c -9.84466,-0.0771 -15.97556,0.0171 -17.60954,0.27061 -8.726451,1.35396 -15.51139,7.60353 -17.381695,16.01019 -0.414708,1.86404 -0.556844,3.80945 -0.473005,6.47402 0.105301,3.34669 0.222708,3.95344 0.966898,4.99686 0.465874,0.6532 1.497749,1.48505 2.293056,1.84856 1.381572,0.63147 2.75872,0.65715 30.902956,0.57625 29.00988,-0.0834 29.47568,-0.0957 30.69147,-0.80988 z m 67.73334,0 c 1.48052,-0.86973 2.80861,-3.06982 2.81661,-4.66598 0.008,-1.59344 -0.75422,-3.22933 -2.09042,-4.48658 l -1.12479,-1.05834 -22.76544,-0.0958 c -22.4974,-0.0947 -22.77936,-0.0872 -23.9481,0.63514 -1.71982,1.06292 -2.62933,2.73364 -2.62933,4.82997 0,2.24988 1.04297,3.87709 3.17784,4.95798 l 1.58466,0.80232 21.87222,-0.0968 c 21.34406,-0.0944 21.90203,-0.11427 23.10675,-0.82197 z m 0.004,-30.23104 c 1.74779,-1.18953 2.54806,-2.48576 2.70627,-4.38344 0.19281,-2.3127 -0.9119,-4.23844 -3.05064,-5.31794 l -1.5726,-0.79375 h -21.54633 -21.54633 l -1.57121,0.79375 c -2.12142,1.07171 -3.1644,2.70302 -3.1644,4.94941 0,2.06849 0.88833,3.73032 2.56973,4.80724 1.11467,0.71394 1.52539,0.7267 23.57185,0.73254 l 22.43741,0.006 1.16626,-0.79375 z m -92.78437,-7.65374 c 5.76439,-1.93562 10.43764,-6.838164 12.04546,-12.63646 3.33763,-12.036563 -5.60167,-23.856209 -18.04268,-23.856209 -8.71906,0 -16.33431,6.043132 -18.34108,14.554662 -0.62591,2.654762 -0.29878,8.163789 0.62663,10.552761 2.34803,6.061502 7.78131,10.764386 13.95519,12.079196 2.37625,0.50605 7.20583,0.16254 9.75648,-0.69395 z m 92.99769,-22.442363 c 1.85112,-1.38236 2.42871,-2.509778 2.42871,-4.740702 0,-2.230921 -0.57759,-3.358335 -2.4287,-4.740702 -0.95554,-0.71357 -1.38959,-0.729368 -22.90876,-0.833758 -14.25977,-0.06917 -22.3703,0.02018 -23.1795,0.255319 -0.68461,0.198949 -1.79586,0.930339 -2.46944,1.625307 -1.15661,1.19331 -1.22471,1.398521 -1.22471,3.690264 0,2.211253 0.0939,2.526513 1.05833,3.551146 2.03055,2.157426 1.10453,2.084726 25.46254,1.998959 21.89781,-0.07711 22.30456,-0.0912 23.26153,-0.805833 z"
       id="path836" />
  </g>
</svg>
