<?xml version="1.0" encoding="UTF-8" standalone="no"?>
<!-- Created with Inkscape (http://www.inkscape.org/) -->

<svg
   width="12.676756mm"
   height="12.224909mm"
   viewBox="0 0 12.676756 12.22491"
   version="1.1"
   id="svg5"
   inkscape:version="1.1 (c68e22c387, 2021-05-23)"
   sodipodi:docname="update_icon.svg"
   xmlns:inkscape="http://www.inkscape.org/namespaces/inkscape"
   xmlns:sodipodi="http://sodipodi.sourceforge.net/DTD/sodipodi-0.dtd"
   xmlns="http://www.w3.org/2000/svg"
   xmlns:svg="http://www.w3.org/2000/svg">
  <sodipodi:namedview
     id="namedview7"
     pagecolor="#505050"
     bordercolor="#eeeeee"
     borderopacity="1"
     inkscape:pageshadow="0"
     inkscape:pageopacity="0"
     inkscape:pagecheckerboard="0"
     inkscape:document-units="mm"
     showgrid="false"
     fit-margin-top="0.2"
     fit-margin-left="0.2"
     fit-margin-right="0.2"
     fit-margin-bottom="0.2"
     inkscape:zoom="11.745006"
     inkscape:cx="29.331617"
     inkscape:cy="20.987644"
     inkscape:window-width="1920"
     inkscape:window-height="1013"
     inkscape:window-x="1791"
     inkscape:window-y="-9"
     inkscape:window-maximized="1"
     inkscape:current-layer="layer1"
     width="12.82mm"
     lock-margins="true"
     showguides="false" />
  <defs
     id="defs2" />
  <g
     inkscape:label="Camada 1"
     inkscape:groupmode="layer"
     id="layer1"
     transform="translate(-95.185878,-86.331683)">
    <path
       style="fill:#bf6eff;fill-opacity:1;stroke-width:0.0240076"
       d="m 101.57745,98.345921 c 1.15604,-0.0701 2.30196,-0.51272 3.22364,-1.24515 0.25029,-0.19889 0.3397,-0.29881 0.43163,-0.48237 0.0731,-0.1459 0.0779,-0.17121 0.0779,-0.40813 0,-0.23425 -0.006,-0.26433 -0.0767,-0.41442 -0.0992,-0.20945 -0.27229,-0.38252 -0.48174,-0.48173 -0.15002,-0.0711 -0.18023,-0.0767 -0.41391,-0.0767 -0.30274,0 -0.41304,0.0424 -0.69622,0.26751 -0.60974,0.48474 -1.22987,0.75451 -1.95421,0.85011 -0.30975,0.0409 -0.92604,0.0167 -1.22679,-0.0482 -1.342427,-0.28963 -2.402827,-1.22573 -2.870287,-2.53385 -0.15913,-0.44533 -0.22102,-0.81842 -0.22102,-1.33242 0,-0.20467 0.013,-0.45855 0.029,-0.56418 0.25074,-1.66179 1.44684,-2.95148 3.062327,-3.30196 0.33808,-0.0733 0.93845,-0.0904 1.30255,-0.037 1.19618,0.17542 2.28478,0.95437 2.83748,2.03036 l 0.12095,0.23547 -0.40195,0.16047 c -0.22107,0.0883 -0.42728,0.18387 -0.45824,0.21247 -0.16695,0.15419 -0.16695,0.40607 0,0.56007 0.031,0.0286 0.58026,0.27586 1.22066,0.54955 1.23285,0.52688 1.27512,0.54035 1.43547,0.45743 0.0403,-0.0208 0.0939,-0.0677 0.11906,-0.10425 0.0252,-0.0365 0.26611,-0.57954 0.53534,-1.20674 0.42363,-0.98687 0.48961,-1.15709 0.49023,-1.26464 5.1e-4,-0.0889 -0.0134,-0.14315 -0.0488,-0.19058 -0.15696,-0.21022 -0.31351,-0.21781 -0.75286,-0.0365 -0.16401,0.0677 -0.30051,0.12041 -0.30333,0.11717 -0.003,-0.003 -0.0754,-0.14324 -0.16133,-0.3111 -0.76722,-1.49897 -2.09092,-2.58837 -3.66637,-3.01742 -0.52583,-0.1432 -0.95061,-0.19827 -1.52344,-0.1975 -1.16267,0.002 -2.202127,0.31501 -3.181107,0.95928 -0.88879,0.5849 -1.67291,1.5105 -2.11257,2.49374 -0.89466,2.00078 -0.63764,4.30046 0.67637,6.05188 0.22197,0.29585 0.70779,0.79711 1.003,1.03488 1.12987,0.91002 2.542927,1.3619 3.985217,1.27444 z"
       id="path836" />
    <g
       id="path1652"
       style="display:none;fill:#b99dd0;fill-opacity:0.222581"
       sodipodi:insensitive="true">
      <path
         style="color:#000000;fill:#b99dd0;fill-opacity:0.222581;stroke-width:0.776237;stroke-linejoin:round;-inkscape-stroke:none"
         d="m 107.2318,92.434067 a 6.0111289,6.0111289 0 0 1 -6.01113,6.011129 6.0111289,6.0111289 0 0 1 -6.011126,-6.011129 6.0111289,6.0111289 0 0 1 6.011126,-6.011129 6.0111289,6.0111289 0 0 1 6.01113,6.011129 z"
         id="path1738" />
      <path
         style="color:#000000;fill:#b99dd0;fill-opacity:0.222581;stroke-linejoin:round;-inkscape-stroke:none"
         d="m 101.2207,86.035156 c -3.529603,0 -6.398434,2.868832 -6.398434,6.398438 0,3.529606 2.868831,6.40039 6.398434,6.40039 3.52961,0 6.39844,-2.870784 6.39844,-6.40039 0,-3.529606 -2.86883,-6.398438 -6.39844,-6.398438 z m 0,0.775391 c 3.1101,0 5.62305,2.51295 5.62305,5.623047 0,3.110097 -2.51295,5.623047 -5.62305,5.623047 -3.110094,0 -5.623044,-2.51295 -5.623044,-5.623047 0,-3.110097 2.51295,-5.623047 5.623044,-5.623047 z"
         id="path1740" />
    </g>
  </g>
</svg>
