<?xml version="1.0" encoding="UTF-8" standalone="no"?>
<!-- Created with Inkscape (http://www.inkscape.org/) -->

<svg
   width="170.21924mm"
   height="186.5889mm"
   viewBox="0 0 170.21924 186.5889"
   version="1.1"
   id="svg5"
   inkscape:version="1.1 (c68e22c387, 2021-05-23)"
   sodipodi:docname="adicionar_cliente_icone.svg"
   xmlns:inkscape="http://www.inkscape.org/namespaces/inkscape"
   xmlns:sodipodi="http://sodipodi.sourceforge.net/DTD/sodipodi-0.dtd"
   xmlns="http://www.w3.org/2000/svg"
   xmlns:svg="http://www.w3.org/2000/svg">
  <sodipodi:namedview
     id="namedview7"
     pagecolor="#505050"
     bordercolor="#eeeeee"
     borderopacity="1"
     inkscape:pageshadow="0"
     inkscape:pageopacity="0"
     inkscape:pagecheckerboard="0"
     inkscape:document-units="mm"
     showgrid="false"
     fit-margin-top="0"
     fit-margin-left="0"
     fit-margin-right="0"
     fit-margin-bottom="0"
     inkscape:zoom="0.73406285"
     inkscape:cx="354.87425"
     inkscape:cy="251.34088"
     inkscape:window-width="1920"
     inkscape:window-height="1013"
     inkscape:window-x="1791"
     inkscape:window-y="-9"
     inkscape:window-maximized="1"
     inkscape:current-layer="layer1" />
  <defs
     id="defs2" />
  <g
     inkscape:label="Camada 1"
     inkscape:groupmode="layer"
     id="layer1"
     transform="translate(4.0882876,13.294121)">
    <path
       style="fill:#ffffff;fill-opacity:1;stroke:#ffffff;stroke-width:6;stroke-miterlimit:4;stroke-dasharray:none;stroke-opacity:1"
       d="m 105.30195,169.95328 c -8.000679,-0.92835 -16.096089,-4.01971 -23.299589,-8.89732 -4.02025,-2.72218 -10.34606,-9.02322 -12.903277,-12.85275 l -1.93551,-2.89849 -24.165273,-0.0189 c -13.795495,-0.0108 -25.190518,-0.16718 -26.55445,-0.3644 C 9.56544,143.92679 4.005294,139.94744 1.031107,133.89064 -1.187797,129.37195 -1.08667,132.5425 -1.08667,67.493378 -1.08667,1.7554452 -1.222298,5.6034022 1.268821,0.66477716 3.827092,-4.4069741 8.549627,-8.1314451 14.280783,-9.5972281 c 2.614184,-0.6685959 4.0108,-0.6968929 34.395431,-0.6968929 18.63524,0 32.025217,0.134825 32.532177,0.3275709 1.06319,0.404225 39.765469,40.9558421 40.355239,42.2835641 0.31208,0.70256 0.42929,5.565828 0.44098,18.296039 l 0.0159,17.33912 1.85208,0.436894 c 8.83155,2.083315 16.9892,6.787737 24.10006,13.898223 9.04069,9.040227 13.85085,19.35837 14.96861,32.10874 0.99382,11.33672 -1.94275,22.82087 -8.30341,32.47234 -10.77479,16.34933 -29.97168,25.33181 -49.33591,23.08491 z m 13.41949,-7.75496 c 16.37627,-2.55927 30.50016,-15.18388 35.17533,-31.44137 1.34079,-4.66245 1.75505,-8.41211 1.53553,-13.89878 -0.35223,-8.80369 -2.52585,-15.64584 -7.20785,-22.688961 -6.41837,-9.655136 -16.61288,-16.485012 -28.3206,-18.973574 -4.14988,-0.882085 -12.78427,-0.881987 -16.93333,1.94e-4 -8.718129,1.853667 -15.870529,5.610215 -22.072959,11.593033 -7.26307,7.005898 -11.660067,15.451368 -13.221027,25.394098 -0.6398,4.07532 -0.28036,12.3692 0.71499,16.49758 5.488277,22.7637 27.090097,37.14968 50.329916,33.51778 z m -8.87775,-24.86723 c -1.94991,-0.96254 -2.09989,-1.52585 -2.22744,-8.36618 l -0.11676,-6.26181 -5.52768,-0.002 c -6.172729,-0.002 -7.809599,-0.30606 -8.863019,-1.64526 -1.58778,-2.01854 -0.52178,-5.0387 2.02847,-5.74699 0.71878,-0.19963 3.80718,-0.36385 6.863119,-0.36493 l 5.55625,-0.002 0.002,-5.55625 c 0.002,-6.20108 0.30496,-7.83731 1.64526,-8.89159 1.11435,-0.876549 3.16673,-0.946251 4.30877,-0.14634 1.51149,1.0588 1.80497,2.4787 1.80497,8.73345 v 5.80359 l 6.2618,0.11677 c 5.27277,0.0983 6.40645,0.21505 7.17757,0.73907 2.24092,1.52281 2.24092,4.6409 0,6.16372 -0.7707,0.52373 -1.90317,0.64073 -7.14941,0.73866 l -6.23364,0.11635 -0.11636,6.23365 c -0.12924,6.92397 -0.37504,7.76464 -2.48533,8.50029 -1.39389,0.48592 -1.6436,0.47208 -2.92868,-0.16227 z m -46.737056,0.0253 c 0,-0.28386 -0.29715,-1.27605 -0.66032,-2.20486 -2.83827,-7.25881 -3.55383,-19.89097 -1.57885,-27.87237 l 0.19391,-0.78362 -16.645422,-0.0983 -16.645424,-0.0983 -1.029169,-1.1521 c -1.451014,-1.62432 -1.429777,-3.5083 0.0563,-4.99438 l 1.085472,-1.085471 H 45.66776 63.452384 l 1.01562,-2.239885 c 0.55858,-1.231935 1.98891,-3.788466 3.17851,-5.681183 1.18959,-1.892716 2.162897,-3.58352 2.162897,-3.757341 0,-0.182661 -8.869887,-0.316036 -21.017417,-0.316036 H 27.774582 l -1.031194,-1.031197 c -1.438531,-1.438529 -1.439302,-3.439749 -0.0021,-5.048652 l 1.029254,-1.152095 24.773862,-0.09749 24.773867,-0.09749 1.62535,-1.355944 c 4.0317,-3.363429 10.38223,-6.799647 16.03586,-8.676862 5.422049,-1.800327 8.356749,-2.323832 14.256519,-2.543147 l 5.3837,-0.200131 -0.092,-14.681129 -0.0919,-14.681133 -12.87638,-0.179659 C 87.674421,37.133877 87.628841,37.127957 84.108471,35.06214 c -1.94372,-1.140605 -4.5867,-3.902629 -5.84843,-6.111833 -1.91254,-3.348722 -2.08968,-4.960067 -2.09542,-19.0610688 l -0.005,-12.8013633 -29.897911,0.101363 -29.897916,0.1013633 -2.293056,1.091688 C 9.948424,0.34485916 7.392299,3.7576262 6.650017,8.2899412 6.17332,11.200613 6.200996,123.94106 6.679127,126.88772 c 0.923337,5.69034 5.24394,9.9112 10.889976,10.63856 1.083328,0.13956 11.772499,0.27456 23.753714,0.3 18.904477,0.0401 21.784027,-0.022 21.784027,-0.46985 z M 27.611171,67.816773 c -2.172342,-1.071686 -2.584648,-3.993176 -0.813512,-5.764315 l 1.085472,-1.085469 h 20.406903 20.40691 l 1.073397,0.90321 c 2.01298,1.693803 1.67609,4.76456 -0.654937,5.969984 -1.56474,0.80916 -39.86038,0.787559 -41.504233,-0.02342 z M 108.56996,29.305184 C 108.01207,28.593815 88.733781,8.2221412 85.618221,5.0517122 l -2.08004,-2.116667 0.10297,10.2305558 c 0.0977,9.711481 0.14168,10.302152 0.86582,11.641666 1.01378,1.875325 2.76192,3.50338 4.70521,4.382015 1.46346,0.661685 2.30068,0.718372 10.71472,0.725516 8.642459,0.0073 9.101519,-0.02505 8.643059,-0.609614 z"
       id="path836" />
  </g>
</svg>
