<?xml version="1.0" encoding="UTF-8" standalone="no"?>
<svg
   data-v-fde0c5aa=""
   viewBox="0 0 263 92"
   class="iconLeftSlogan"
   version="1.1"
   id="svg26"
   sodipodi:docname="cliens-default-logo-white-background.svg"
   width="263"
   height="92"
   inkscape:version="1.1 (c68e22c387, 2021-05-23)"
   xmlns:inkscape="http://www.inkscape.org/namespaces/inkscape"
   xmlns:sodipodi="http://sodipodi.sourceforge.net/DTD/sodipodi-0.dtd"
   xmlns:xlink="http://www.w3.org/1999/xlink"
   xmlns="http://www.w3.org/2000/svg"
   xmlns:svg="http://www.w3.org/2000/svg">
  <sodipodi:namedview
     id="namedview28"
     pagecolor="#505050"
     bordercolor="#eeeeee"
     borderopacity="1"
     inkscape:pageshadow="0"
     inkscape:pageopacity="0"
     inkscape:pagecheckerboard="0"
     showgrid="false"
     height="299px"
     inkscape:zoom="2.7466667"
     inkscape:cx="127.9733"
     inkscape:cy="93.75"
     inkscape:window-width="1800"
     inkscape:window-height="1059"
     inkscape:window-x="-9"
     inkscape:window-y="-9"
     inkscape:window-maximized="1"
     inkscape:current-layer="svg26" />
  <!---->
  <defs
     data-v-fde0c5aa=""
     id="defs2">
    <!---->
    <linearGradient
       inkscape:collect="always"
       xlink:href="#cc1d6110-7625-4c33-98db-fa4b90a06783"
       id="linearGradient110"
       gradientTransform="scale(1.0015821,0.99842042)"
       x1="4.849328"
       y1="5.0079103"
       x2="94.991714"
       y2="5.0079103"
       gradientUnits="userSpaceOnUse" />
    <linearGradient
       inkscape:collect="always"
       xlink:href="#cc1d6110-7625-4c33-98db-fa4b90a06783"
       id="linearGradient112"
       gradientTransform="scale(1.0015821,0.99842042)"
       x1="4.849328"
       y1="5.0079103"
       x2="94.991714"
       y2="5.0079103"
       gradientUnits="userSpaceOnUse" />
  </defs>
  <defs
     data-v-fde0c5aa=""
     id="defs6">
    <!---->
  </defs>
  <g
     data-v-fde0c5aa=""
     id="c7f91e00-ce67-4b42-a5f2-d59a81c9f1f6"
     fill="#000000"
     transform="matrix(4.0836412,0,0,4.0836412,94.596397,3.2382704)">
    <path
       d="M 0.48,7.76 V 10 c 0,2.6 1.65,3.97 4.06,3.97 2.59,0 3.86,-1.38 3.86,-3.55 V 10.08 H 6.55 v 0.34 c 0,1.1 -0.54,1.87 -2.01,1.87 -1.45,0 -2.22,-0.89 -2.22,-2.24 V 7.7 c 0,-1.23 0.83,-2.24 2.22,-2.24 1.34,0 2.01,0.76 2.01,1.88 V 7.67 H 8.4 V 7.34 C 8.4,5.15 7.01,3.78 4.54,3.78 2.06,3.78 0.48,5.32 0.48,7.76 Z M 11.45,3.98 H 9.69 v 9.8 h 1.76 z m 1.32,0.84 c 0,0.71 0.54,1.2 1.24,1.2 0.7,0 1.25,-0.49 1.25,-1.2 0,-0.72 -0.55,-1.21 -1.25,-1.21 -0.7,0 -1.24,0.49 -1.24,1.21 z m 2.13,2.01 h -1.77 v 6.95 h 1.77 z m 1.26,3.42 c 0,2.15 1.49,3.72 3.57,3.72 1.86,0 2.67,-0.98 3.15,-1.71 L 21.36,11.4 c -0.23,0.49 -0.68,1.03 -1.66,1.03 -1.01,0 -1.67,-0.71 -1.71,-1.61 h 5.14 v -0.68 c 0,-2.09 -1.42,-3.5 -3.43,-3.5 -2.05,0 -3.54,1.51 -3.54,3.61 z M 18,9.59 c 0.12,-0.83 0.69,-1.41 1.68,-1.41 0.91,0 1.53,0.56 1.63,1.41 z m 6.39,-2.76 v 6.95 h 1.76 v -3.59 c 0,-1.23 0.6,-1.93 1.74,-1.93 1.01,0 1.57,0.57 1.57,1.54 v 3.98 h 1.76 V 9.63 c 0,-1.8 -1.16,-2.91 -2.7,-2.91 -1.28,0 -1.92,0.59 -2.2,1.23 h -0.2 V 6.83 Z m 8.17,1.96 c 0,1.29 0.89,1.89 2.83,2.16 l 0.21,0.03 c 0.76,0.09 1.47,0.15 1.47,0.67 0,0.54 -0.66,0.84 -1.34,0.84 -0.9,0 -1.82,-0.45 -2.26,-1.36 l -1.41,0.88 c 0.64,0.98 1.71,1.96 3.63,1.96 1.84,0 3.12,-0.99 3.12,-2.35 0,-1.27 -0.83,-1.83 -3.05,-2.13 L 35.55,9.46 C 34.82,9.37 34.3,9.28 34.3,8.78 c 0,-0.42 0.36,-0.69 0.99,-0.69 0.93,0 1.63,0.53 2.16,1.16 l 1.27,-1 C 37.79,7.27 36.78,6.64 35.35,6.64 c -1.61,0 -2.79,0.86 -2.79,2.15 z"
       id="path8" />
  </g>
  <defs
     data-v-fde0c5aa=""
     id="defs16">
    <linearGradient
       data-v-fde0c5aa=""
       gradientTransform="rotate(25)"
       id="cc1d6110-7625-4c33-98db-fa4b90a06783"
       x1="0"
       y1="0"
       x2="1"
       y2="0">
      <stop
         data-v-fde0c5aa=""
         offset="0%"
         stop-color="#0015D6"
         stop-opacity="1"
         id="stop11" />
      <stop
         data-v-fde0c5aa=""
         offset="100%"
         stop-color="#0989FB"
         stop-opacity="1"
         id="stop13" />
    </linearGradient>
  </defs>
  <g
     data-v-fde0c5aa=""
     id="9742959a-c1e5-4aae-b962-a03d2102ff05"
     stroke="none"
     fill="url(#cc1d6110-7625-4c33-98db-fa4b90a06783)"
     transform="matrix(0.84132985,0,0,0.84132985,3.5107484,3.6228304)"
     style="fill:url(#linearGradient112)">
    <path
       d="m 5.001,49.903 c 0,-6.628 5.373,-12.002 12.002,-12.002 5.196,0 9.62,3.302 11.29,7.921 v 10e-4 a 26.625,26.625 0 0 0 15.022,10.305 l 0.146,0.037 A 10.793,10.793 0 0 0 41.297,71.248 L 41.235,71.213 A 26.66,26.66 0 0 1 28.877,62.318 L 28.896,95 H 4.857 L 5.005,49.992 Z M 71.104,17.002 c 0,6.628 5.373,12.002 12.002,12.002 6.629,0 12.002,-5.373 12.002,-12.002 C 95.108,10.373 89.734,5 83.106,5 76.478,5 71.104,10.373 71.104,17.002 Z M 17.003,5 c 6.628,0 12.002,5.373 12.002,12.002 0,6.629 -5.373,12.002 -12.002,12.002 C 10.374,29.004 5.001,23.63 5.001,17.002 5.001,10.374 10.374,5 17.003,5 Z m 37.238,51.552 a 7.736,7.736 0 1 0 3.217,15.098 l 0.357,-0.145 a 26.638,26.638 0 0 0 13.288,-9.179 v 32.657 h 24.039 l -0.036,-45.08 c 0,-6.628 -5.373,-12.002 -12.002,-12.002 -5.066,0 -9.398,3.138 -11.16,7.576 l -0.064,0.08 C 67.902,51.252 61.751,55.318 54.63,56.55 Z"
       id="path18"
       style="fill:url(#linearGradient110)" />
  </g>
  <defs
     data-v-fde0c5aa=""
     id="defs21">
    <!---->
  </defs>
  <g
     data-v-fde0c5aa=""
     id="dcd724a3-dfc8-49b1-b65a-b9f11491ae32"
     fill="#000000"
     transform="matrix(0.72165043,0,0,0.72165043,96.181287,69.4821)">
    <path
       d="M 8.43,12.21 C 8.4,12.18 8.36,12.15 8.32,12.15 c -0.03,0 -0.05,0 -0.07,0.02 -0.02,0.01 -0.05,0.04 -0.07,0.05 -0.2,0.18 -0.41,0.34 -0.61,0.48 -0.19,0.14 -0.4,0.24 -0.64,0.33 -0.24,0.1 -0.49,0.17 -0.77,0.21 -0.28,0.05 -0.59,0.07 -0.94,0.07 -0.56,0 -1.1,-0.09 -1.58,-0.3 C 3.15,12.81 2.74,12.52 2.39,12.14 2.04,11.76 1.75,11.28 1.55,10.74 1.36,10.19 1.26,9.56 1.26,8.86 1.26,8.18 1.36,7.56 1.55,7.01 1.76,6.47 2.04,6.01 2.41,5.61 2.77,5.24 3.21,4.94 3.71,4.73 4.21,4.52 4.76,4.42 5.36,4.42 6.26,4.42 7.08,4.56 7.81,4.89 7.85,5.78 7.9,6.3 7.9,6.41 7.91,6.64 7.99,6.75 8.19,6.75 H 8.53 V 4.51 C 7.35,4.03 6.29,3.81 5.36,3.81 4.65,3.81 4,3.92 3.4,4.17 2.81,4.42 2.28,4.76 1.86,5.21 1.43,5.66 1.11,6.19 0.87,6.8 0.63,7.42 0.52,8.11 0.52,8.86 c 0,0.77 0.12,1.46 0.35,2.09 0.22,0.63 0.54,1.15 0.95,1.59 0.41,0.45 0.9,0.79 1.47,1.03 0.57,0.23 1.19,0.36 1.88,0.36 0.4,0 0.78,-0.03 1.13,-0.1 C 6.64,13.76 6.96,13.66 7.25,13.54 7.53,13.41 7.8,13.26 8.04,13.09 8.27,12.91 8.5,12.73 8.71,12.5 Z m 14.66,-0.24 c -0.2,0 -0.28,0.11 -0.3,0.34 0,0.01 0,0.07 -0.01,0.12 -0.02,0.06 -0.02,0.16 -0.03,0.28 -0.01,0.13 -0.03,0.3 -0.04,0.49 H 18.62 V 4.47 c 0.17,0 0.31,-0.02 0.45,-0.02 0.14,0 0.25,-0.01 0.32,-0.01 h 0.13 C 19.7,4.42 19.8,4.34 19.8,4.19 V 3.92 h -1.18 -0.71 -1.19 v 0.27 c 0,0.15 0.09,0.23 0.28,0.25 h 0.14 c 0.07,0 0.16,0.01 0.3,0.01 0.14,0 0.3,0.02 0.47,0.02 v 8.79 c -0.17,0 -0.33,0.01 -0.47,0.01 -0.14,0 -0.23,0.02 -0.3,0.02 H 17 c -0.19,0.01 -0.28,0.09 -0.28,0.25 v 0.28 h 1.19 5.27 0.13 0.13 V 13.55 12.99 11.97 H 23.16 Z M 34.68,4.44 c 0.18,-0.02 0.26,-0.1 0.26,-0.25 V 3.91 h -1.17 -0.72 -1.19 v 0.28 c 0,0.15 0.1,0.23 0.28,0.25 h 0.14 c 0.07,0 0.17,0.01 0.31,0.01 0.14,0 0.3,0.02 0.46,0.02 v 8.79 c -0.16,0 -0.32,0.01 -0.46,0.01 -0.14,0 -0.24,0.02 -0.31,0.02 h -0.14 c -0.18,0.01 -0.28,0.09 -0.28,0.25 v 0.28 h 1.19 0.72 1.17 v -0.28 c 0,-0.16 -0.08,-0.24 -0.26,-0.25 h -0.14 c -0.07,0 -0.17,-0.02 -0.31,-0.02 -0.14,0 -0.29,-0.01 -0.46,-0.01 V 4.47 c 0.17,0 0.32,-0.02 0.46,-0.02 0.14,0 0.24,-0.01 0.31,-0.01 z m 9.8,-0.52 h -1.19 v 0.27 c 0,0.15 0.1,0.23 0.28,0.25 h 0.14 c 0.07,0 0.17,0.01 0.31,0.01 0.14,0 0.29,0.02 0.46,0.02 v 8.79 c -0.17,0 -0.32,0.01 -0.46,0.01 -0.14,0 -0.24,0.02 -0.31,0.02 h -0.14 c -0.18,0.01 -0.27,0.09 -0.27,0.25 v 0.28 h 1.18 5.93 v -0.6 -1.46 h -0.35 c -0.19,0 -0.28,0.13 -0.29,0.35 0,0.03 -0.01,0.08 -0.01,0.18 0,0.1 0,0.24 -0.02,0.45 -0.01,0.21 -0.03,0.35 -0.03,0.48 H 45.19 V 9.09 h 3.95 V 8.51 h -3.95 v -4 h 4.52 c 0.03,0.61 0.06,0.99 0.06,1.12 0.01,0.22 0.1,0.33 0.29,0.33 h 0.35 V 4.51 3.92 Z m 23.35,0 H 67.2 65.98 v 0.27 c 0,0.15 0.1,0.23 0.28,0.25 h 0.14 c 0.07,0 0.18,0.01 0.32,0.01 0.14,0 0.31,0.02 0.48,0.02 v 7.75 c 0,0.13 0,0.27 0.01,0.41 L 60.8,4.05 C 60.76,3.99 60.73,3.95 60.69,3.93 60.65,3.92 60.61,3.91 60.54,3.91 H 60.19 59 v 0.28 c 0,0.15 0.09,0.23 0.28,0.25 h 0.14 c 0.07,0 0.16,0.01 0.3,0.01 0.14,0 0.3,0.02 0.47,0.02 v 8.79 c -0.17,0 -0.33,0.01 -0.47,0.01 -0.14,0 -0.23,0.02 -0.3,0.02 H 59.28 C 59.09,13.3 59,13.38 59,13.54 v 0.28 h 1.19 0.61 1.22 v -0.28 c 0,-0.16 -0.1,-0.24 -0.28,-0.25 H 61.6 c -0.07,0 -0.2,-0.02 -0.34,-0.02 -0.14,0 -0.29,-0.01 -0.46,-0.01 V 5.49 c 0,-0.13 0,-0.27 -0.01,-0.41 l 6.44,8.6 c 0.07,0.1 0.14,0.14 0.25,0.14 h 0.35 V 4.47 c 0.17,0 0.31,-0.02 0.45,-0.02 0.14,0 0.25,-0.01 0.32,-0.01 h 0.13 c 0.18,-0.02 0.28,-0.1 0.28,-0.25 V 3.92 Z m 16.73,0 h -0.2 -7.29 -0.21 -0.1 v 2.04 h 0.35 c 0.2,0 0.28,-0.11 0.3,-0.33 0,-0.1 0.02,-0.46 0.05,-1.11 h 2.9 v 8.74 c -0.17,0 -0.31,0.01 -0.45,0.01 -0.14,0 -0.25,0.02 -0.32,0.02 h -0.13 c -0.18,0.01 -0.28,0.09 -0.28,0.25 v 0.28 h 1.18 0.71 1.19 v -0.28 c 0,-0.16 -0.09,-0.24 -0.28,-0.25 h -0.14 c -0.07,0 -0.16,-0.02 -0.3,-0.02 -0.14,0 -0.3,-0.01 -0.47,-0.01 V 4.52 h 2.89 c 0.04,0.72 0.05,1.08 0.05,1.11 0.02,0.22 0.12,0.33 0.31,0.33 h 0.34 V 3.92 Z m 30.45,0.52 c 0.18,-0.02 0.28,-0.1 0.28,-0.25 V 3.92 h -1.18 -0.5 c -0.07,0 -0.11,0 -0.15,0.01 -0.05,0.02 -0.07,0.06 -0.12,0.12 l -3.89,6.87 c -0.04,0.07 -0.07,0.14 -0.1,0.21 -0.02,0.07 -0.05,0.15 -0.08,0.22 -0.06,-0.15 -0.11,-0.29 -0.18,-0.42 l -4.01,-6.88 c -0.04,-0.06 -0.07,-0.1 -0.11,-0.12 -0.04,-0.01 -0.08,-0.01 -0.15,-0.01 h -0.49 -1.19 v 0.27 c 0,0.15 0.1,0.23 0.28,0.25 h 0.14 c 0.07,0 0.17,0.01 0.31,0.01 0.14,0 0.29,0.02 0.46,0.02 v 8.79 c -0.17,0 -0.32,0.01 -0.46,0.01 -0.14,0 -0.24,0.02 -0.31,0.02 h -0.14 c -0.18,0.01 -0.28,0.09 -0.28,0.25 v 0.28 h 1.19 0.61 1.22 v -0.28 c 0,-0.16 -0.1,-0.24 -0.28,-0.25 h -0.14 c -0.07,0 -0.18,-0.02 -0.32,-0.02 -0.14,0 -0.31,-0.01 -0.48,-0.01 V 5.38 c 0,-0.13 0,-0.26 -0.01,-0.4 l 4,6.93 c 0.07,0.13 0.17,0.19 0.28,0.19 h 0.12 c 0.12,0 0.21,-0.06 0.28,-0.19 l 3.89,-6.93 c -0.02,0.14 -0.02,0.27 -0.02,0.4 v 7.88 c -0.16,0 -0.33,0.01 -0.47,0.01 -0.14,0 -0.25,0.02 -0.32,0.02 h -0.14 c -0.19,0.01 -0.28,0.09 -0.28,0.25 v 0.28 h 1.21 0.63 1.18 v -0.28 c 0,-0.16 -0.1,-0.24 -0.28,-0.25 h -0.13 c -0.07,0 -0.18,-0.02 -0.32,-0.02 -0.14,0 -0.28,-0.01 -0.45,-0.01 V 4.47 c 0.17,0 0.31,-0.02 0.45,-0.02 0.14,0 0.25,-0.01 0.32,-0.01 z m 17.92,8.78 -0.46,-0.05 -3.78,-9.26 h -0.72 l -3.79,9.26 -0.45,0.05 c -0.18,0.01 -0.26,0.11 -0.26,0.28 v 0.32 h 0.44 0.3 0.25 0.1 1.31 V 13.5 c 0,-0.19 -0.11,-0.27 -0.32,-0.28 -0.01,0 -0.04,-0.02 -0.08,-0.02 -0.04,0 -0.1,-0.01 -0.2,-0.01 -0.1,0 -0.22,0 -0.36,-0.02 l 0.98,-2.42 0.07,-0.18 h 4.73 l 0.07,0.18 0.98,2.42 c -0.14,0.02 -0.25,0.02 -0.35,0.02 -0.1,0 -0.17,0.01 -0.21,0.01 -0.04,0 -0.07,0.02 -0.08,0.02 -0.21,0.01 -0.33,0.09 -0.33,0.28 v 0.32 h 1.32 0.1 0.26 0.28 0.47 V 13.5 c 0,-0.17 -0.09,-0.27 -0.27,-0.28 z m -4.8,-8 c 0.03,-0.08 0.07,-0.18 0.1,-0.28 0.02,-0.1 0.07,-0.19 0.09,-0.31 0.03,0.12 0.07,0.21 0.1,0.31 0.03,0.1 0.07,0.18 0.1,0.27 l 1.96,4.83 h -4.3 z m 22.13,-1.3 h -0.63 -1.22 v 0.27 c 0,0.15 0.1,0.23 0.28,0.25 h 0.14 c 0.07,0 0.19,0.01 0.33,0.01 0.14,0 0.3,0.02 0.47,0.02 v 7.75 c 0,0.13 0,0.27 0.02,0.41 l -6.42,-8.58 c -0.04,-0.06 -0.07,-0.1 -0.11,-0.12 -0.04,-0.01 -0.08,-0.02 -0.15,-0.02 h -0.35 -1.19 v 0.28 c 0,0.15 0.1,0.23 0.28,0.25 h 0.14 c 0.07,0 0.17,0.01 0.31,0.01 0.14,0 0.29,0.02 0.46,0.02 v 8.79 c -0.17,0 -0.32,0.01 -0.46,0.01 -0.14,0 -0.24,0.02 -0.31,0.02 h -0.14 c -0.18,0.01 -0.28,0.09 -0.28,0.25 v 0.28 h 1.19 0.61 1.22 v -0.28 c 0,-0.16 -0.1,-0.24 -0.28,-0.25 h -0.14 c -0.07,0 -0.19,-0.02 -0.33,-0.02 -0.14,0 -0.3,-0.01 -0.47,-0.01 V 5.49 c 0,-0.13 0,-0.27 -0.01,-0.41 l 6.44,8.6 c 0.07,0.1 0.14,0.14 0.25,0.14 h 0.35 V 4.47 c 0.17,0 0.31,-0.02 0.45,-0.02 0.14,0 0.25,-0.01 0.32,-0.01 h 0.13 c 0.18,-0.02 0.28,-0.1 0.28,-0.25 V 3.92 Z m 18.51,9.3 -0.46,-0.05 -3.78,-9.26 h -0.72 l -3.79,9.26 -0.45,0.05 c -0.18,0.01 -0.26,0.11 -0.26,0.28 v 0.32 h 0.44 0.3 0.25 0.1 1.31 V 13.5 c 0,-0.19 -0.11,-0.27 -0.32,-0.28 -0.01,0 -0.04,-0.02 -0.08,-0.02 -0.04,0 -0.1,-0.01 -0.2,-0.01 -0.1,0 -0.22,0 -0.36,-0.02 l 0.98,-2.42 0.07,-0.18 h 4.73 l 0.07,0.18 0.98,2.42 c -0.14,0.02 -0.25,0.02 -0.35,0.02 -0.1,0 -0.17,0.01 -0.21,0.01 -0.04,0 -0.07,0.02 -0.08,0.02 -0.21,0.01 -0.33,0.09 -0.33,0.28 v 0.32 h 1.32 0.1 0.26 0.28 0.47 V 13.5 c 0,-0.17 -0.09,-0.27 -0.27,-0.28 z m -4.8,-8 c 0.03,-0.08 0.07,-0.18 0.1,-0.28 0.02,-0.1 0.07,-0.19 0.09,-0.31 0.03,0.12 0.07,0.21 0.1,0.31 0.03,0.1 0.07,0.18 0.1,0.27 l 1.96,4.83 h -4.3 z m 18.35,4.1 v 0.4 c 0,0.04 0.03,0.08 0.06,0.11 0.03,0.03 0.07,0.04 0.12,0.04 h 1.91 v 2.67 c -0.23,0.13 -0.45,0.24 -0.66,0.34 -0.21,0.1 -0.45,0.2 -0.69,0.27 -0.23,0.07 -0.5,0.12 -0.78,0.15 -0.28,0.03 -0.59,0.04 -0.92,0.04 -0.62,0 -1.18,-0.1 -1.68,-0.31 -0.51,-0.21 -0.94,-0.5 -1.31,-0.88 -0.36,-0.38 -0.64,-0.85 -0.84,-1.41 -0.19,-0.56 -0.3,-1.18 -0.3,-1.88 0,-0.68 0.11,-1.3 0.3,-1.85 0.2,-0.54 0.48,-1.02 0.84,-1.4 0.37,-0.37 0.82,-0.67 1.33,-0.88 0.52,-0.21 1.1,-0.31 1.74,-0.31 1.18,0 2.11,0.16 2.8,0.48 0.04,0.91 0.07,1.41 0.07,1.51 0.01,0.23 0.11,0.34 0.31,0.34 h 0.33 V 4.51 c -0.43,-0.2 -0.99,-0.37 -1.69,-0.51 -0.7,-0.14 -1.29,-0.19 -1.79,-0.19 -0.76,0 -1.44,0.11 -2.06,0.35 -0.62,0.24 -1.13,0.59 -1.57,1.02 -0.43,0.43 -0.75,0.97 -0.99,1.6 -0.24,0.61 -0.35,1.31 -0.35,2.08 0,0.77 0.11,1.46 0.35,2.09 0.24,0.63 0.56,1.15 0.98,1.59 0.42,0.45 0.94,0.79 1.52,1.03 0.59,0.23 1.24,0.36 1.95,0.36 0.42,0 0.8,-0.03 1.15,-0.07 0.35,-0.06 0.67,-0.13 0.98,-0.21 0.31,-0.1 0.59,-0.21 0.85,-0.35 0.27,-0.14 0.52,-0.29 0.77,-0.46 V 9.32 Z m 12.32,-5.4 h -1.19 v 0.27 c 0,0.15 0.1,0.23 0.28,0.25 h 0.14 c 0.07,0 0.17,0.01 0.31,0.01 0.14,0 0.29,0.02 0.46,0.02 v 8.79 c -0.17,0 -0.32,0.01 -0.46,0.01 -0.14,0 -0.24,0.02 -0.31,0.02 h -0.14 c -0.18,0.01 -0.26,0.09 -0.26,0.25 v 0.28 h 1.17 5.94 v -0.6 -1.46 h -0.35 c -0.2,0 -0.28,0.13 -0.3,0.35 0,0.03 -0.01,0.08 -0.01,0.18 0,0.1 0,0.24 -0.01,0.45 -0.02,0.21 -0.03,0.35 -0.03,0.48 h -4.52 V 9.09 h 3.94 V 8.51 h -3.94 v -4 h 4.52 c 0.03,0.61 0.05,0.99 0.05,1.12 0.02,0.22 0.1,0.33 0.3,0.33 h 0.35 V 4.51 3.92 Z m 22.51,9.37 h -0.09 -0.19 c -0.08,0 -0.16,-0.02 -0.25,-0.02 l -2.97,-3.74 c -0.08,-0.11 -0.19,-0.21 -0.3,-0.28 0.43,-0.04 0.82,-0.14 1.17,-0.29 0.35,-0.15 0.63,-0.35 0.88,-0.59 0.24,-0.24 0.44,-0.52 0.56,-0.82 0.13,-0.31 0.2,-0.66 0.2,-1.04 0,-0.85 -0.28,-1.48 -0.84,-1.93 -0.56,-0.44 -1.41,-0.66 -2.56,-0.66 h -2.41 -1.18 v 0.27 c 0,0.15 0.09,0.23 0.27,0.25 h 0.14 c 0.07,0 0.17,0.01 0.31,0.01 0.14,0 0.29,0.02 0.46,0.02 v 8.79 c -0.17,0 -0.32,0.01 -0.46,0.01 -0.14,0 -0.24,0.02 -0.31,0.02 h -0.14 c -0.18,0.01 -0.28,0.09 -0.28,0.25 v 0.28 h 1.19 0.71 1.18 v -0.28 c 0,-0.16 -0.1,-0.24 -0.28,-0.25 h -0.14 c -0.07,0 -0.17,-0.02 -0.31,-0.02 -0.14,0 -0.28,-0.01 -0.45,-0.01 V 9.34 h 1.18 c 0.2,0 0.34,0.01 0.42,0.05 0.08,0.05 0.17,0.13 0.25,0.23 l 3.18,4.02 c 0.06,0.07 0.1,0.11 0.15,0.14 0.06,0.02 0.13,0.04 0.2,0.04 h 0.07 0.55 0.36 v -0.28 c 0,-0.16 -0.08,-0.24 -0.27,-0.25 z m -4.49,-4.48 h -1.6 V 4.48 h 1.7 c 0.88,0 1.55,0.18 2.01,0.52 0.47,0.33 0.69,0.87 0.69,1.57 0,0.35 -0.06,0.64 -0.18,0.92 -0.13,0.28 -0.32,0.5 -0.56,0.7 -0.24,0.2 -0.53,0.36 -0.88,0.46 -0.35,0.1 -0.75,0.16 -1.18,0.16 z"
       id="path23" />
  </g>
</svg>
