<svg width="50.984mm" height="50.203mm" version="1.1" viewBox="0 0 192.69 189.74" xmlns="http://www.w3.org/2000/svg">
 <g transform="translate(-113.12 52.98)">
  <path d="m138.63-52.832c-33.228 0.7948-31.067 51.693 2 50.245 32.418-1.4195 30.354-51.019-2-50.245m139-0.1157c-33.154 1.5519-30.102 51.823 3 50.361 32.375-1.43 29.232-51.87-3-50.361m-164 189.4h51v-68c6.9135 7.184 14.793 15.179 25 17-4.8849-12.685-2.3923-20.143 5-31-11.073-3.746-20.005-9.257-27.895-18-6.8878-7.6321-9.9039-16.886-21.105-19.471-15.337-3.5394-28.812 6.3644-31.536 21.471-1.8941 10.505-0.4645 22.34-0.4645 33v65m140-68v68h37c3.316 0 10.632 1.351 12.972-1.603 4.265-5.385 1.028-23.611 1.028-30.397 0-21.909 3.07-46.463-1.096-68-1.846-9.5435-9.314-17.401-18.904-19.482-22.587-4.9003-27.967 17.816-43 28.438-11.41 8.063-36.479 7.984-37.775 25.043-0.865 11.398 9.485 18.096 19.775 16.815 11.853-1.476 21.977-10.798 30-18.815z" fill="#c882e9"/>
  <g></g>
 </g>
</svg>
