<?xml version="1.0" encoding="UTF-8" standalone="no"?>
<svg
   data-v-fde0c5aa=""
   viewBox="0 0 319 92"
   class="iconLeftSlogan"
   version="1.1"
   id="svg26"
   sodipodi:docname="header-logo.svg"
   width="319"
   height="92"
   inkscape:version="1.1 (c68e22c387, 2021-05-23)"
   xmlns:inkscape="http://www.inkscape.org/namespaces/inkscape"
   xmlns:sodipodi="http://sodipodi.sourceforge.net/DTD/sodipodi-0.dtd"
   xmlns:xlink="http://www.w3.org/1999/xlink"
   xmlns="http://www.w3.org/2000/svg"
   xmlns:svg="http://www.w3.org/2000/svg">
  <sodipodi:namedview
     id="namedview28"
     pagecolor="#505050"
     bordercolor="#eeeeee"
     borderopacity="1"
     inkscape:pageshadow="0"
     inkscape:pageopacity="0"
     inkscape:pagecheckerboard="0"
     showgrid="false"
     height="299px"
     inkscape:zoom="1.3733333"
     inkscape:cx="46.237864"
     inkscape:cy="97.208738"
     inkscape:window-width="1800"
     inkscape:window-height="1059"
     inkscape:window-x="-9"
     inkscape:window-y="-9"
     inkscape:window-maximized="1"
     inkscape:current-layer="svg26" />
  <!---->
  <defs
     data-v-fde0c5aa=""
     id="defs2">
    <!---->
    <linearGradient
       inkscape:collect="always"
       xlink:href="#cc1d6110-7625-4c33-98db-fa4b90a06783"
       id="linearGradient110"
       gradientTransform="scale(1.0015821,0.99842042)"
       x1="4.849328"
       y1="5.0079103"
       x2="94.991714"
       y2="5.0079103"
       gradientUnits="userSpaceOnUse" />
    <linearGradient
       inkscape:collect="always"
       xlink:href="#cc1d6110-7625-4c33-98db-fa4b90a06783"
       id="linearGradient112"
       gradientTransform="scale(1.0015821,0.99842042)"
       x1="4.849328"
       y1="5.0079103"
       x2="94.991714"
       y2="5.0079103"
       gradientUnits="userSpaceOnUse" />
  </defs>
  <defs
     data-v-fde0c5aa=""
     id="defs6">
    <!---->
  </defs>
  <g
     data-v-fde0c5aa=""
     id="c7f91e00-ce67-4b42-a5f2-d59a81c9f1f6"
     fill="#000000"
     transform="matrix(5.4893465,0,0,5.4893465,98.29059,0.71221801)">
    <path
       d="M 0.48,7.76 V 10 c 0,2.6 1.65,3.97 4.06,3.97 2.59,0 3.86,-1.38 3.86,-3.55 V 10.08 H 6.55 v 0.34 c 0,1.1 -0.54,1.87 -2.01,1.87 -1.45,0 -2.22,-0.89 -2.22,-2.24 V 7.7 c 0,-1.23 0.83,-2.24 2.22,-2.24 1.34,0 2.01,0.76 2.01,1.88 V 7.67 H 8.4 V 7.34 C 8.4,5.15 7.01,3.78 4.54,3.78 2.06,3.78 0.48,5.32 0.48,7.76 Z M 11.45,3.98 H 9.69 v 9.8 h 1.76 z m 1.32,0.84 c 0,0.71 0.54,1.2 1.24,1.2 0.7,0 1.25,-0.49 1.25,-1.2 0,-0.72 -0.55,-1.21 -1.25,-1.21 -0.7,0 -1.24,0.49 -1.24,1.21 z m 2.13,2.01 h -1.77 v 6.95 h 1.77 z m 1.26,3.42 c 0,2.15 1.49,3.72 3.57,3.72 1.86,0 2.67,-0.98 3.15,-1.71 L 21.36,11.4 c -0.23,0.49 -0.68,1.03 -1.66,1.03 -1.01,0 -1.67,-0.71 -1.71,-1.61 h 5.14 v -0.68 c 0,-2.09 -1.42,-3.5 -3.43,-3.5 -2.05,0 -3.54,1.51 -3.54,3.61 z M 18,9.59 c 0.12,-0.83 0.69,-1.41 1.68,-1.41 0.91,0 1.53,0.56 1.63,1.41 z m 6.39,-2.76 v 6.95 h 1.76 v -3.59 c 0,-1.23 0.6,-1.93 1.74,-1.93 1.01,0 1.57,0.57 1.57,1.54 v 3.98 h 1.76 V 9.63 c 0,-1.8 -1.16,-2.91 -2.7,-2.91 -1.28,0 -1.92,0.59 -2.2,1.23 h -0.2 V 6.83 Z m 8.17,1.96 c 0,1.29 0.89,1.89 2.83,2.16 l 0.21,0.03 c 0.76,0.09 1.47,0.15 1.47,0.67 0,0.54 -0.66,0.84 -1.34,0.84 -0.9,0 -1.82,-0.45 -2.26,-1.36 l -1.41,0.88 c 0.64,0.98 1.71,1.96 3.63,1.96 1.84,0 3.12,-0.99 3.12,-2.35 0,-1.27 -0.83,-1.83 -3.05,-2.13 L 35.55,9.46 C 34.82,9.37 34.3,9.28 34.3,8.78 c 0,-0.42 0.36,-0.69 0.99,-0.69 0.93,0 1.63,0.53 2.16,1.16 l 1.27,-1 C 37.79,7.27 36.78,6.64 35.35,6.64 c -1.61,0 -2.79,0.86 -2.79,2.15 z"
       id="path8" />
  </g>
  <defs
     data-v-fde0c5aa=""
     id="defs16">
    <linearGradient
       data-v-fde0c5aa=""
       gradientTransform="rotate(25)"
       id="cc1d6110-7625-4c33-98db-fa4b90a06783"
       x1="0"
       y1="0"
       x2="1"
       y2="0">
      <stop
         data-v-fde0c5aa=""
         offset="0%"
         stop-color="#0015D6"
         stop-opacity="1"
         id="stop11" />
      <stop
         data-v-fde0c5aa=""
         offset="100%"
         stop-color="#0989FB"
         stop-opacity="1"
         id="stop13" />
    </linearGradient>
  </defs>
  <g
     data-v-fde0c5aa=""
     id="9742959a-c1e5-4aae-b962-a03d2102ff05"
     stroke="none"
     fill="url(#cc1d6110-7625-4c33-98db-fa4b90a06783)"
     transform="matrix(0.84132985,0,0,0.84132985,3.5107484,3.6228304)"
     style="fill:url(#linearGradient112)">
    <path
       d="m 5.001,49.903 c 0,-6.628 5.373,-12.002 12.002,-12.002 5.196,0 9.62,3.302 11.29,7.921 v 10e-4 a 26.625,26.625 0 0 0 15.022,10.305 l 0.146,0.037 A 10.793,10.793 0 0 0 41.297,71.248 L 41.235,71.213 A 26.66,26.66 0 0 1 28.877,62.318 L 28.896,95 H 4.857 L 5.005,49.992 Z M 71.104,17.002 c 0,6.628 5.373,12.002 12.002,12.002 6.629,0 12.002,-5.373 12.002,-12.002 C 95.108,10.373 89.734,5 83.106,5 76.478,5 71.104,10.373 71.104,17.002 Z M 17.003,5 c 6.628,0 12.002,5.373 12.002,12.002 0,6.629 -5.373,12.002 -12.002,12.002 C 10.374,29.004 5.001,23.63 5.001,17.002 5.001,10.374 10.374,5 17.003,5 Z m 37.238,51.552 a 7.736,7.736 0 1 0 3.217,15.098 l 0.357,-0.145 a 26.638,26.638 0 0 0 13.288,-9.179 v 32.657 h 24.039 l -0.036,-45.08 c 0,-6.628 -5.373,-12.002 -12.002,-12.002 -5.066,0 -9.398,3.138 -11.16,7.576 l -0.064,0.08 C 67.902,51.252 61.751,55.318 54.63,56.55 Z"
       id="path18"
       style="fill:url(#linearGradient110)" />
  </g>
  <defs
     data-v-fde0c5aa=""
     id="defs21">
    <!---->
  </defs>
</svg>
