<svg width="135.34mm" height="95.134mm" version="1.1" viewBox="0 0 135.34 95.134" xmlns="http://www.w3.org/2000/svg">
 <g transform="translate(-21226 752.64)">
  <path d="m21229-657.75c-2.662-0.9334-4.071-3.7022-3.294-6.4757 0.448-1.6012 1.89-3.0599 3.445-3.4854 0.906-0.24819 15.517-0.30393 64.539-0.2462 61.535 0.0725 63.397 0.0891 64.375 0.57488 2.074 1.0302 3.217 3.6228 2.605 5.9111-0.427 1.5954-1.327 2.7724-2.605 3.4071-0.978 0.48605-2.814 0.50157-64.639 0.54636-43.947 0.0318-63.878-0.04-64.426-0.2322zm0-42.333c-2.662-0.9334-4.071-3.7022-3.294-6.4757 0.448-1.6012 1.89-3.0599 3.445-3.4854 0.906-0.2482 15.517-0.30393 64.539-0.2462 61.535 0.0725 63.397 0.0891 64.375 0.57488 1.278 0.63477 2.178 1.8117 2.605 3.4071 0.612 2.2883-0.531 4.8809-2.605 5.9111-0.978 0.48605-2.814 0.50156-64.639 0.54636-43.947 0.0318-63.878-0.04-64.426-0.2322zm0-42.333c-2.662-0.9334-4.071-3.7022-3.294-6.4757 0.448-1.6012 1.89-3.0599 3.445-3.4854 0.906-0.2482 15.517-0.30393 64.539-0.2462 61.535 0.0725 63.397 0.0891 64.375 0.57488 1.278 0.63477 2.178 1.8117 2.605 3.4071 0.612 2.2883-0.531 4.8809-2.605 5.9111-0.978 0.48605-2.814 0.50156-64.639 0.54636-43.947 0.0318-63.878-0.04-64.426-0.2322z" fill='currentColor'/>
 </g>
</svg>
