<?xml version="1.0" encoding="UTF-8" standalone="no"?>
<!-- Created with Inkscape (http://www.inkscape.org/) -->

<svg
   width="47.988194mm"
   height="47.988194mm"
   viewBox="0 0 47.988194 47.988194"
   version="1.1"
   id="svg5"
   inkscape:version="1.1 (c68e22c387, 2021-05-23)"
   sodipodi:docname="search_icon.svg"
   xmlns:inkscape="http://www.inkscape.org/namespaces/inkscape"
   xmlns:sodipodi="http://sodipodi.sourceforge.net/DTD/sodipodi-0.dtd"
   xmlns="http://www.w3.org/2000/svg"
   xmlns:svg="http://www.w3.org/2000/svg">
  <sodipodi:namedview
     id="namedview7"
     pagecolor="#505050"
     bordercolor="#eeeeee"
     borderopacity="1"
     inkscape:pageshadow="0"
     inkscape:pageopacity="0"
     inkscape:pagecheckerboard="0"
     inkscape:document-units="mm"
     showgrid="false"
     fit-margin-top="0"
     fit-margin-left="0"
     fit-margin-right="0"
     fit-margin-bottom="0"
     inkscape:zoom="1.4681257"
     inkscape:cx="164.49545"
     inkscape:cy="-8.5142573"
     inkscape:window-width="1920"
     inkscape:window-height="1013"
     inkscape:window-x="1791"
     inkscape:window-y="-9"
     inkscape:window-maximized="1"
     inkscape:current-layer="layer1" />
  <defs
     id="defs2" />
  <g
     inkscape:label="Camada 1"
     inkscape:groupmode="layer"
     id="layer1"
     transform="translate(-1.9573582,-1.2364858)">
    <path
       style="fill:#ffffff;stroke-width:0.0937269;fill-opacity:1"
       d="M 45.068762,49.122296 C 43.99531,48.911872 43.914028,48.84191 38.50363,43.471503 c -2.809465,-2.7887 -5.918638,-5.870367 -6.909274,-6.84815 l -1.801155,-1.777786 -1.151244,0.571234 C 22.887886,38.271916 16.053888,37.864679 10.713592,34.348453 6.5443925,31.603316 3.7408195,27.321629 2.8408785,22.325048 2.6301005,21.154789 2.5521035,18.577889 2.6915625,17.391947 3.4228485,11.173198 7.0235325,5.9619261 12.492827,3.2065721 c 7.490113,-3.773415 16.604566,-1.904181 21.927888,4.497073 1.89748,2.281704 3.116423,4.7547009 3.788245,7.6856089 0.600502,2.619761 0.550907,5.619805 -0.138445,8.374609 -0.452379,1.807809 -1.39834,3.966382 -2.326817,5.309524 l -0.42114,0.609226 6.791011,6.748339 c 6.480688,6.439968 6.804992,6.778321 7.096993,7.404429 0.28441,0.609829 0.305984,0.725476 0.305984,1.640221 0,0.871574 -0.02873,1.04543 -0.251194,1.52007 -0.49151,1.048669 -1.551592,1.888507 -2.682386,2.125093 -0.565094,0.118228 -0.917069,0.118584 -1.514204,0.0015 z M 22.242006,30.807357 c 1.453518,-0.212668 2.473388,-0.538002 3.720504,-1.186823 2.601816,-1.353614 4.691304,-3.781741 5.632777,-6.545671 0.786252,-2.308243 0.82567,-4.94367 0.107925,-7.215737 -1.050477,-3.325348 -3.5299,-6.0259149 -6.733909,-7.3345199 -0.365918,-0.149451 -1.108164,-0.384138 -1.649437,-0.521528 -0.890824,-0.226115 -1.148534,-0.249799 -2.718081,-0.249799 -1.569548,0 -1.827258,0.02368 -2.718082,0.249799 -2.914938,0.739889 -5.358986,2.4472149 -6.950749,4.8555489 -1.2755745,1.929939 -1.8308155,3.661457 -1.9250425,6.00324 -0.134073,3.332045 1.0606905,6.353254 3.4487785,8.72096 2.59382,2.571684 6.177073,3.752463 9.785316,3.22453 z"
       id="path836" />
  </g>
</svg>
